<?xml version="1.0" encoding="UTF-8" standalone="no"?>
<!DOCTYPE svg PUBLIC "-//W3C//DTD SVG 1.1//EN"
 "http://www.w3.org/Graphics/SVG/1.1/DTD/svg11.dtd">
<!-- Generated by graphviz version 2.38.0 (20140413.2041)
 -->
<!-- Title: %3 Pages: 1 -->
<svg width="241pt" height="204pt"
 viewBox="0.00 0.00 240.75 204.00" xmlns="http://www.w3.org/2000/svg" xmlns:xlink="http://www.w3.org/1999/xlink">
<g id="graph0" class="graph" transform="scale(1 1) rotate(0) translate(4 200)">
<title>%3</title>
<polygon fill="white" stroke="none" points="-4,4 -4,-200 236.754,-200 236.754,4 -4,4"/>
<!-- fake -->
<g id="node1" class="node"><title>fake</title>
</g>
<!-- state0 -->
<g id="node3" class="node"><title>state0</title>
<ellipse fill="none" stroke="black" cx="43.9071" cy="-105" rx="31.6951" ry="18"/>
<text text-anchor="middle" x="43.9071" y="-101.3" font-family="Times New Roman,serif" font-size="14.00">state0</text>
</g>
<!-- fake&#45;&gt;state0 -->
<g id="edge1" class="edge"><title>fake&#45;&gt;state0</title>
<path fill="none" stroke="black" stroke-width="2" d="M43.9071,-159.813C43.9071,-151.789 43.9071,-142.047 43.9071,-133.069"/>
<polygon fill="black" stroke="black" stroke-width="2" points="47.4072,-133.029 43.9071,-123.029 40.4072,-133.029 47.4072,-133.029"/>
</g>
<!-- state1 -->
<g id="node2" class="node"><title>state1</title>
<ellipse fill="none" stroke="black" cx="43.9071" cy="-18" rx="31.6951" ry="18"/>
<text text-anchor="middle" x="43.9071" y="-14.3" font-family="Times New Roman,serif" font-size="14.00">state1</text>
</g>
<!-- state1&#45;&gt;state1 -->
<g id="edge5" class="edge"><title>state1&#45;&gt;state1</title>
<path fill="none" stroke="black" d="M75.0615,-21.9375C85.4464,-21.9375 93.7542,-20.625 93.7542,-18 93.7542,-16.3184 90.3447,-15.1754 85.1638,-14.571"/>
<polygon fill="black" stroke="black" points="85.2249,-11.0698 75.0615,-14.0625 84.8729,-18.0609 85.2249,-11.0698"/>
<text text-anchor="middle" x="122.254" y="-14.3" font-family="Times New Roman,serif" font-size="14.00">null/send1</text>
</g>
<!-- state1&#45;&gt;state1 -->
<g id="edge6" class="edge"><title>state1&#45;&gt;state1</title>
<path fill="none" stroke="black" d="M73.831,-24.3134C106.766,-27.6923 150.754,-25.5879 150.754,-18 150.754,-11.1828 115.247,-8.79168 84.1503,-10.8268"/>
<polygon fill="black" stroke="black" points="83.5058,-7.36826 73.831,-11.6866 84.0872,-14.3441 83.5058,-7.36826"/>
<text text-anchor="middle" x="182.754" y="-14.3" font-family="Times New Roman,serif" font-size="14.00">ack0/send1</text>
</g>
<!-- state1&#45;&gt;state0 -->
<g id="edge7" class="edge"><title>state1&#45;&gt;state0</title>
<path fill="none" stroke="black" d="M57.1304,-34.8046C63.5945,-44.4448 69.3211,-57.1533 65.9071,-69 64.9028,-72.4849 63.4378,-75.9576 61.7331,-79.2873"/>
<polygon fill="black" stroke="black" points="58.5505,-77.7936 56.4777,-88.1837 64.5774,-81.354 58.5505,-77.7936"/>
<text text-anchor="middle" x="98.9071" y="-57.8" font-family="Times New Roman,serif" font-size="14.00">ack1/send0</text>
</g>
<!-- state0&#45;&gt;state1 -->
<g id="edge3" class="edge"><title>state0&#45;&gt;state1</title>
<path fill="none" stroke="black" d="M21.9417,-91.417C14.1088,-85.6779 6.17454,-78.1112 1.90707,-69 -3.53407,-57.3829 4.04084,-46.2668 14.1883,-37.4785"/>
<polygon fill="black" stroke="black" points="16.4944,-40.12 22.2765,-31.242 12.2201,-34.5765 16.4944,-40.12"/>
<text text-anchor="middle" x="33.9071" y="-57.8" font-family="Times New Roman,serif" font-size="14.00">ack0/send1</text>
</g>
<!-- state0&#45;&gt;state0 -->
<g id="edge2" class="edge"><title>state0&#45;&gt;state0</title>
<path fill="none" stroke="black" d="M75.5468,-108.374C85.704,-108.34 93.7542,-107.215 93.7542,-105 93.7542,-103.616 90.6096,-102.657 85.7713,-102.125"/>
<polygon fill="black" stroke="black" points="85.7055,-98.6174 75.5468,-101.626 85.3643,-105.609 85.7055,-98.6174"/>
<text text-anchor="middle" x="122.254" y="-101.3" font-family="Times New Roman,serif" font-size="14.00">null/send0</text>
</g>
<!-- state0&#45;&gt;state0 -->
<g id="edge4" class="edge"><title>state0&#45;&gt;state0</title>
<path fill="none" stroke="black" d="M74.3661,-110.458C107.24,-113.288 150.754,-111.469 150.754,-105 150.754,-99.1882 115.63,-97.1294 84.6549,-98.8236"/>
<polygon fill="black" stroke="black" points="84.098,-95.3539 74.3661,-99.542 84.5856,-102.337 84.098,-95.3539"/>
<text text-anchor="middle" x="182.754" y="-101.3" font-family="Times New Roman,serif" font-size="14.00">ack1/send0</text>
</g>
</g>
</svg>
