<?xml version="1.0" encoding="UTF-8" standalone="no"?>
<!DOCTYPE svg PUBLIC "-//W3C//DTD SVG 1.1//EN"
 "http://www.w3.org/Graphics/SVG/1.1/DTD/svg11.dtd">
<!-- Generated by graphviz version 2.38.0 (20140413.2041)
 -->
<!-- Title: %3 Pages: 1 -->
<svg width="253pt" height="204pt"
 viewBox="0.00 0.00 252.69 204.00" xmlns="http://www.w3.org/2000/svg" xmlns:xlink="http://www.w3.org/1999/xlink">
<g id="graph0" class="graph" transform="scale(1 1) rotate(0) translate(4 200)">
<title>%3</title>
<polygon fill="white" stroke="none" points="-4,4 -4,-200 248.694,-200 248.694,4 -4,4"/>
<!-- fake -->
<g id="node1" class="node"><title>fake</title>
</g>
<!-- state0 -->
<g id="node3" class="node"><title>state0</title>
<ellipse fill="none" stroke="black" cx="31.8472" cy="-105" rx="31.6951" ry="18"/>
<text text-anchor="middle" x="31.8472" y="-101.3" font-family="Times New Roman,serif" font-size="14.00">state0</text>
</g>
<!-- fake&#45;&gt;state0 -->
<g id="edge1" class="edge"><title>fake&#45;&gt;state0</title>
<path fill="none" stroke="black" stroke-width="2" d="M31.8472,-159.813C31.8472,-151.789 31.8472,-142.047 31.8472,-133.069"/>
<polygon fill="black" stroke="black" stroke-width="2" points="35.3473,-133.029 31.8472,-123.029 28.3473,-133.029 35.3473,-133.029"/>
</g>
<!-- state1 -->
<g id="node2" class="node"><title>state1</title>
<ellipse fill="none" stroke="black" cx="31.8472" cy="-18" rx="31.6951" ry="18"/>
<text text-anchor="middle" x="31.8472" y="-14.3" font-family="Times New Roman,serif" font-size="14.00">state1</text>
</g>
<!-- state1&#45;&gt;state1 -->
<g id="edge6" class="edge"><title>state1&#45;&gt;state1</title>
<path fill="none" stroke="black" d="M63.969,-19.9668C73.8976,-19.9271 81.6943,-19.2715 81.6943,-18 81.6943,-17.2252 78.7991,-16.6791 74.2905,-16.3617"/>
<polygon fill="black" stroke="black" points="74.0753,-12.8531 63.969,-16.0332 73.8525,-19.8496 74.0753,-12.8531"/>
<text text-anchor="middle" x="96.1943" y="-14.3" font-family="Times New Roman,serif" font-size="14.00">w/err</text>
</g>
<!-- state1&#45;&gt;state1 -->
<g id="edge7" class="edge"><title>state1&#45;&gt;state1</title>
<path fill="none" stroke="black" d="M63.4367,-21.553C86.4775,-22.6296 110.694,-21.4453 110.694,-18 110.694,-15.0661 93.1333,-13.7718 73.6917,-14.117"/>
<polygon fill="black" stroke="black" points="73.3189,-10.6271 63.4367,-14.447 73.5441,-17.6235 73.3189,-10.6271"/>
<text text-anchor="middle" x="124.194" y="-14.3" font-family="Times New Roman,serif" font-size="14.00">p/err</text>
</g>
<!-- state1&#45;&gt;state1 -->
<g id="edge8" class="edge"><title>state1&#45;&gt;state1</title>
<path fill="none" stroke="black" d="M62.8494,-22.63C96.2642,-25.3112 137.694,-23.7678 137.694,-18 137.694,-12.818 104.252,-11.0459 73.2267,-12.6838"/>
<polygon fill="black" stroke="black" points="72.5966,-9.21771 62.8494,-13.37 73.0586,-16.2025 72.5966,-9.21771"/>
<text text-anchor="middle" x="151.194" y="-14.3" font-family="Times New Roman,serif" font-size="14.00">b/err</text>
</g>
<!-- state1&#45;&gt;state1 -->
<g id="edge9" class="edge"><title>state1&#45;&gt;state1</title>
<path fill="none" stroke="black" d="M62.3228,-23.4178C105.038,-27.9885 164.694,-26.1826 164.694,-18 164.694,-10.4407 113.78,-8.32357 72.3449,-11.6487"/>
<polygon fill="black" stroke="black" points="71.9551,-8.16979 62.3228,-12.5822 72.6043,-15.1396 71.9551,-8.16979"/>
<text text-anchor="middle" x="177.694" y="-14.3" font-family="Times New Roman,serif" font-size="14.00">c/err</text>
</g>
<!-- state0&#45;&gt;state1 -->
<g id="edge4" class="edge"><title>state0&#45;&gt;state1</title>
<path fill="none" stroke="black" d="M31.8472,-86.799C31.8472,-75.1626 31.8472,-59.5479 31.8472,-46.2368"/>
<polygon fill="black" stroke="black" points="35.3473,-46.1754 31.8472,-36.1754 28.3473,-46.1755 35.3473,-46.1754"/>
<text text-anchor="middle" x="45.3472" y="-57.8" font-family="Times New Roman,serif" font-size="14.00">b/err</text>
</g>
<!-- state0&#45;&gt;state0 -->
<g id="edge2" class="edge"><title>state0&#45;&gt;state0</title>
<path fill="none" stroke="black" d="M63.4869,-107.249C73.6441,-107.226 81.6943,-106.477 81.6943,-105 81.6943,-104.077 78.5497,-103.438 73.7115,-103.083"/>
<polygon fill="black" stroke="black" points="73.5954,-99.5776 63.4869,-102.751 73.3678,-106.574 73.5954,-99.5776"/>
<text text-anchor="middle" x="99.6943" y="-101.3" font-family="Times New Roman,serif" font-size="14.00">w/don</text>
</g>
<!-- state0&#45;&gt;state0 -->
<g id="edge3" class="edge"><title>state0&#45;&gt;state0</title>
<path fill="none" stroke="black" d="M63.1136,-108.944C88.8178,-110.369 117.694,-109.055 117.694,-105 117.694,-101.468 95.7827,-100.015 73.1434,-100.642"/>
<polygon fill="black" stroke="black" points="72.9604,-97.146 63.1136,-101.056 73.2497,-104.14 72.9604,-97.146"/>
<text text-anchor="middle" x="134.694" y="-101.3" font-family="Times New Roman,serif" font-size="14.00">p/don</text>
</g>
<!-- state0&#45;&gt;state0 -->
<g id="edge5" class="edge"><title>state0&#45;&gt;state0</title>
<path fill="none" stroke="black" d="M62.6456,-110.063C100.377,-113.438 151.694,-111.75 151.694,-105 151.694,-98.8301 108.818,-96.8899 72.6329,-99.1795"/>
<polygon fill="black" stroke="black" points="72.352,-95.6907 62.6456,-99.9375 72.8818,-102.671 72.352,-95.6907"/>
<text text-anchor="middle" x="168.194" y="-101.3" font-family="Times New Roman,serif" font-size="14.00">c/don</text>
</g>
</g>
</svg>
