<?xml version="1.0" encoding="UTF-8" standalone="no"?>
<!DOCTYPE svg PUBLIC "-//W3C//DTD SVG 1.1//EN"
 "http://www.w3.org/Graphics/SVG/1.1/DTD/svg11.dtd">
<!-- Generated by graphviz version 2.38.0 (20140413.2041)
 -->
<!-- Title: %3 Pages: 1 -->
<svg width="534pt" height="465pt"
 viewBox="0.00 0.00 534.00 465.00" xmlns="http://www.w3.org/2000/svg" xmlns:xlink="http://www.w3.org/1999/xlink">
<g id="graph0" class="graph" transform="scale(1 1) rotate(0) translate(4 461)">
<title>%3</title>
<polygon fill="white" stroke="none" points="-4,4 -4,-461 530,-461 530,4 -4,4"/>
<!-- fake -->
<g id="node1" class="node"><title>fake</title>
</g>
<!-- state0 -->
<g id="node4" class="node"><title>state0</title>
<ellipse fill="none" stroke="black" cx="209" cy="-366" rx="31.6951" ry="18"/>
<text text-anchor="middle" x="209" y="-362.3" font-family="Times New Roman,serif" font-size="14.00">state0</text>
</g>
<!-- fake&#45;&gt;state0 -->
<g id="edge1" class="edge"><title>fake&#45;&gt;state0</title>
<path fill="none" stroke="black" stroke-width="2" d="M209,-420.813C209,-412.789 209,-403.047 209,-394.069"/>
<polygon fill="black" stroke="black" stroke-width="2" points="212.5,-394.029 209,-384.029 205.5,-394.029 212.5,-394.029"/>
</g>
<!-- state3 -->
<g id="node2" class="node"><title>state3</title>
<ellipse fill="none" stroke="black" cx="170" cy="-18" rx="31.6951" ry="18"/>
<text text-anchor="middle" x="170" y="-14.3" font-family="Times New Roman,serif" font-size="14.00">state3</text>
</g>
<!-- state3&#45;&gt;state3 -->
<g id="edge14" class="edge"><title>state3&#45;&gt;state3</title>
<path fill="none" stroke="black" d="M202.122,-19.9668C212.05,-19.9271 219.847,-19.2715 219.847,-18 219.847,-17.2252 216.952,-16.6791 212.443,-16.3617"/>
<polygon fill="black" stroke="black" points="212.228,-12.8531 202.122,-16.0332 212.005,-19.8496 212.228,-12.8531"/>
<text text-anchor="middle" x="250.347" y="-14.3" font-family="Times New Roman,serif" font-size="14.00">water/none</text>
</g>
<!-- state3&#45;&gt;state3 -->
<g id="edge15" class="edge"><title>state3&#45;&gt;state3</title>
<path fill="none" stroke="black" d="M201.508,-21.1972C235.514,-22.8289 280.847,-21.7632 280.847,-18 280.847,-14.6043 243.936,-13.4049 211.742,-14.4019"/>
<polygon fill="black" stroke="black" points="211.363,-10.914 201.508,-14.8028 211.637,-17.9086 211.363,-10.914"/>
<text text-anchor="middle" x="307.847" y="-14.3" font-family="Times New Roman,serif" font-size="14.00">pod/none</text>
</g>
<!-- state3&#45;&gt;state3 -->
<g id="edge16" class="edge"><title>state3&#45;&gt;state3</title>
<path fill="none" stroke="black" d="M201.301,-22.0114C251.282,-25.5049 334.847,-24.1677 334.847,-18 334.847,-12.2298 261.707,-10.6876 211.352,-13.3733"/>
<polygon fill="black" stroke="black" points="211.068,-9.88402 201.301,-13.9886 211.496,-16.8709 211.068,-9.88402"/>
<text text-anchor="middle" x="368.347" y="-14.3" font-family="Times New Roman,serif" font-size="14.00">button/none</text>
</g>
<!-- state3&#45;&gt;state3 -->
<g id="edge17" class="edge"><title>state3&#45;&gt;state3</title>
<path fill="none" stroke="black" d="M200.902,-22.5238C267.225,-28.1827 401.847,-26.6748 401.847,-18 401.847,-9.74877 280.051,-7.98162 211.082,-12.6985"/>
<polygon fill="black" stroke="black" points="210.607,-9.22459 200.902,-13.4762 211.14,-16.2043 210.607,-9.22459"/>
<text text-anchor="middle" x="431.847" y="-14.3" font-family="Times New Roman,serif" font-size="14.00">clean/none</text>
</g>
<!-- state1 -->
<g id="node3" class="node"><title>state1</title>
<ellipse fill="none" stroke="black" cx="61" cy="-279" rx="31.6951" ry="18"/>
<text text-anchor="middle" x="61" y="-275.3" font-family="Times New Roman,serif" font-size="14.00">state1</text>
</g>
<!-- state1&#45;&gt;state3 -->
<g id="edge8" class="edge"><title>state1&#45;&gt;state3</title>
<path fill="none" stroke="black" d="M64.2212,-260.98C73.1798,-214.86 99.292,-88.6266 123,-54 127.347,-47.6516 133.227,-41.9996 139.355,-37.1866"/>
<polygon fill="black" stroke="black" points="141.667,-39.8351 147.745,-31.1568 137.582,-34.1508 141.667,-39.8351"/>
<text text-anchor="middle" x="125.5" y="-144.8" font-family="Times New Roman,serif" font-size="14.00">button/none</text>
</g>
<!-- state1&#45;&gt;state1 -->
<g id="edge6" class="edge"><title>state1&#45;&gt;state1</title>
<path fill="none" stroke="black" d="M89.6855,-286.827C101.191,-287.269 110.847,-284.66 110.847,-279 110.847,-275.109 106.283,-272.659 99.6916,-271.652"/>
<polygon fill="black" stroke="black" points="99.8415,-268.156 89.6855,-271.173 99.5065,-275.148 99.8415,-268.156"/>
<text text-anchor="middle" x="141.847" y="-275.3" font-family="Times New Roman,serif" font-size="14.00">water/done</text>
</g>
<!-- state1&#45;&gt;state0 -->
<g id="edge9" class="edge"><title>state1&#45;&gt;state0</title>
<path fill="none" stroke="black" d="M80.3882,-293.522C100.109,-307.236 128.53,-326.878 134,-330 147.055,-337.45 161.964,-344.656 175.032,-350.573"/>
<polygon fill="black" stroke="black" points="173.61,-353.771 184.169,-354.639 176.456,-347.376 173.61,-353.771"/>
<text text-anchor="middle" x="164.5" y="-318.8" font-family="Times New Roman,serif" font-size="14.00">clean/done</text>
</g>
<!-- state4 -->
<g id="node6" class="node"><title>state4</title>
<ellipse fill="none" stroke="black" cx="158" cy="-192" rx="31.6951" ry="18"/>
<text text-anchor="middle" x="158" y="-188.3" font-family="Times New Roman,serif" font-size="14.00">state4</text>
</g>
<!-- state1&#45;&gt;state4 -->
<g id="edge7" class="edge"><title>state1&#45;&gt;state4</title>
<path fill="none" stroke="black" d="M80.7113,-264.737C89.6135,-258.47 100.105,-250.688 109,-243 118.672,-234.64 128.669,-224.708 137.09,-215.908"/>
<polygon fill="black" stroke="black" points="139.727,-218.213 144.037,-208.534 134.632,-213.413 139.727,-218.213"/>
<text text-anchor="middle" x="152.5" y="-231.8" font-family="Times New Roman,serif" font-size="14.00">pod/done</text>
</g>
<!-- state0&#45;&gt;state3 -->
<g id="edge4" class="edge"><title>state0&#45;&gt;state3</title>
<path fill="none" stroke="black" d="M176.802,-365.823C118.176,-365.469 0,-355.404 0,-280 0,-280 0,-280 0,-104 0,-46.7348 78.1246,-28.0481 128.452,-21.9514"/>
<polygon fill="black" stroke="black" points="128.862,-25.4274 138.423,-20.862 128.102,-18.4688 128.862,-25.4274"/>
<text text-anchor="middle" x="33.5" y="-188.3" font-family="Times New Roman,serif" font-size="14.00">button/none</text>
</g>
<!-- state0&#45;&gt;state1 -->
<g id="edge2" class="edge"><title>state0&#45;&gt;state1</title>
<path fill="none" stroke="black" d="M177.556,-362.691C135.624,-358.882 64.8233,-349.659 49,-330 43.5285,-323.202 43.985,-314.306 46.6402,-305.905"/>
<polygon fill="black" stroke="black" points="49.9724,-307.004 50.5438,-296.425 43.4997,-304.339 49.9724,-307.004"/>
<text text-anchor="middle" x="80" y="-318.8" font-family="Times New Roman,serif" font-size="14.00">water/done</text>
</g>
<!-- state0&#45;&gt;state0 -->
<g id="edge5" class="edge"><title>state0&#45;&gt;state0</title>
<path fill="none" stroke="black" d="M238.681,-372.735C249.742,-372.956 258.847,-370.711 258.847,-366 258.847,-362.835 254.737,-360.783 248.685,-359.844"/>
<polygon fill="black" stroke="black" points="248.867,-356.349 238.681,-359.265 248.462,-363.337 248.867,-356.349"/>
<text text-anchor="middle" x="289.347" y="-362.3" font-family="Times New Roman,serif" font-size="14.00">clean/done</text>
</g>
<!-- state2 -->
<g id="node7" class="node"><title>state2</title>
<ellipse fill="none" stroke="black" cx="320" cy="-279" rx="31.6951" ry="18"/>
<text text-anchor="middle" x="320" y="-275.3" font-family="Times New Roman,serif" font-size="14.00">state2</text>
</g>
<!-- state0&#45;&gt;state2 -->
<g id="edge3" class="edge"><title>state0&#45;&gt;state2</title>
<path fill="none" stroke="black" d="M217.211,-348.404C223.169,-337.735 232.082,-324.198 243,-315 249.9,-309.187 267.917,-300.89 284.789,-293.833"/>
<polygon fill="black" stroke="black" points="286.575,-296.884 294.498,-289.85 283.918,-290.408 286.575,-296.884"/>
<text text-anchor="middle" x="270.5" y="-318.8" font-family="Times New Roman,serif" font-size="14.00">pod/done</text>
</g>
<!-- state5 -->
<g id="node5" class="node"><title>state5</title>
<ellipse fill="none" stroke="black" cx="212" cy="-105" rx="31.6951" ry="18"/>
<text text-anchor="middle" x="212" y="-101.3" font-family="Times New Roman,serif" font-size="14.00">state5</text>
</g>
<!-- state5&#45;&gt;state3 -->
<g id="edge22" class="edge"><title>state5&#45;&gt;state3</title>
<path fill="none" stroke="black" d="M181.31,-99.6263C162.785,-95.2319 140.587,-86.4609 129,-69 121.758,-58.0861 129.634,-46.7341 140.353,-37.6106"/>
<polygon fill="black" stroke="black" points="142.662,-40.251 148.484,-31.3992 138.412,-34.6883 142.662,-40.251"/>
<text text-anchor="middle" x="159.5" y="-57.8" font-family="Times New Roman,serif" font-size="14.00">water/none</text>
</g>
<!-- state5&#45;&gt;state3 -->
<g id="edge23" class="edge"><title>state5&#45;&gt;state3</title>
<path fill="none" stroke="black" d="M205.097,-87.1302C200.963,-77.3402 195.463,-64.8402 190,-54 188.376,-50.7775 186.595,-47.4333 184.786,-44.147"/>
<polygon fill="black" stroke="black" points="187.689,-42.1705 179.72,-35.1884 181.595,-45.616 187.689,-42.1705"/>
<text text-anchor="middle" x="225" y="-57.8" font-family="Times New Roman,serif" font-size="14.00">pod/none</text>
</g>
<!-- state5&#45;&gt;state3 -->
<g id="edge24" class="edge"><title>state5&#45;&gt;state3</title>
<path fill="none" stroke="black" d="M234.609,-91.9975C249.786,-82.3008 265.423,-68.0078 256,-54 245.771,-38.794 227.667,-30.1911 210.699,-25.3255"/>
<polygon fill="black" stroke="black" points="211.459,-21.9078 200.908,-22.8708 209.757,-28.6976 211.459,-21.9078"/>
<text text-anchor="middle" x="292.5" y="-57.8" font-family="Times New Roman,serif" font-size="14.00">button/none</text>
</g>
<!-- state5&#45;&gt;state0 -->
<g id="edge25" class="edge"><title>state5&#45;&gt;state0</title>
<path fill="none" stroke="black" d="M244.121,-106.039C300.647,-106.866 414.274,-112.169 439,-141 484.16,-193.656 470.359,-237.923 434,-297 414.579,-328.555 309.493,-349.56 250.049,-359.103"/>
<polygon fill="black" stroke="black" points="249.201,-355.693 239.863,-360.698 250.284,-362.609 249.201,-355.693"/>
<text text-anchor="middle" x="495.5" y="-231.8" font-family="Times New Roman,serif" font-size="14.00">clean/done</text>
</g>
<!-- state4&#45;&gt;state0 -->
<g id="edge21" class="edge"><title>state4&#45;&gt;state0</title>
<path fill="none" stroke="black" d="M171.839,-208.416C176.358,-214.198 180.985,-221.057 184,-228 199.628,-263.986 205.488,-309.396 207.685,-337.824"/>
<polygon fill="black" stroke="black" points="204.195,-338.091 208.36,-347.833 211.179,-337.62 204.195,-338.091"/>
<text text-anchor="middle" x="233.5" y="-275.3" font-family="Times New Roman,serif" font-size="14.00">clean/done</text>
</g>
<!-- state4&#45;&gt;state5 -->
<g id="edge20" class="edge"><title>state4&#45;&gt;state5</title>
<path fill="none" stroke="black" d="M168.412,-174.611C176.256,-162.264 187.149,-145.117 196.084,-131.053"/>
<polygon fill="black" stroke="black" points="199.212,-132.656 201.62,-122.339 193.304,-128.902 199.212,-132.656"/>
<text text-anchor="middle" x="227" y="-144.8" font-family="Times New Roman,serif" font-size="14.00">button/coffee</text>
</g>
<!-- state4&#45;&gt;state4 -->
<g id="edge18" class="edge"><title>state4&#45;&gt;state4</title>
<path fill="none" stroke="black" d="M189.154,-195.938C199.539,-195.938 207.847,-194.625 207.847,-192 207.847,-190.318 204.438,-189.175 199.257,-188.571"/>
<polygon fill="black" stroke="black" points="199.318,-185.07 189.154,-188.063 198.966,-192.061 199.318,-185.07"/>
<text text-anchor="middle" x="238.847" y="-188.3" font-family="Times New Roman,serif" font-size="14.00">water/done</text>
</g>
<!-- state4&#45;&gt;state4 -->
<g id="edge19" class="edge"><title>state4&#45;&gt;state4</title>
<path fill="none" stroke="black" d="M188.031,-198.23C222.489,-201.726 269.847,-199.649 269.847,-192 269.847,-185.068 230.952,-182.712 198.012,-184.934"/>
<polygon fill="black" stroke="black" points="197.703,-181.447 188.031,-185.77 198.288,-188.423 197.703,-181.447"/>
<text text-anchor="middle" x="297.347" y="-188.3" font-family="Times New Roman,serif" font-size="14.00">pod/done</text>
</g>
<!-- state2&#45;&gt;state3 -->
<g id="edge12" class="edge"><title>state2&#45;&gt;state3</title>
<path fill="none" stroke="black" d="M330.188,-261.695C337.886,-248.361 347.816,-228.718 352,-210 362.93,-161.106 334.82,-58.9872 330,-54 313.878,-37.3193 253.305,-27.6835 211.497,-22.8887"/>
<polygon fill="black" stroke="black" points="211.632,-19.3827 201.31,-21.7727 210.869,-26.341 211.632,-19.3827"/>
<text text-anchor="middle" x="386.5" y="-144.8" font-family="Times New Roman,serif" font-size="14.00">button/none</text>
</g>
<!-- state2&#45;&gt;state0 -->
<g id="edge13" class="edge"><title>state2&#45;&gt;state0</title>
<path fill="none" stroke="black" d="M316.016,-297.244C312.761,-307.908 307.163,-321.195 298,-330 284.49,-342.983 265.596,-351.321 248.69,-356.586"/>
<polygon fill="black" stroke="black" points="247.678,-353.235 239.021,-359.343 249.598,-359.966 247.678,-353.235"/>
<text text-anchor="middle" x="339.5" y="-318.8" font-family="Times New Roman,serif" font-size="14.00">clean/done</text>
</g>
<!-- state2&#45;&gt;state4 -->
<g id="edge10" class="edge"><title>state2&#45;&gt;state4</title>
<path fill="none" stroke="black" d="M297.475,-266.181C269.384,-251.442 221.202,-226.162 189.474,-209.514"/>
<polygon fill="black" stroke="black" points="191.076,-206.402 180.595,-204.855 187.824,-212.601 191.076,-206.402"/>
<text text-anchor="middle" x="280" y="-231.8" font-family="Times New Roman,serif" font-size="14.00">water/done</text>
</g>
<!-- state2&#45;&gt;state2 -->
<g id="edge11" class="edge"><title>state2&#45;&gt;state2</title>
<path fill="none" stroke="black" d="M348.685,-286.827C360.191,-287.269 369.847,-284.66 369.847,-279 369.847,-275.109 365.283,-272.659 358.692,-271.652"/>
<polygon fill="black" stroke="black" points="358.842,-268.156 348.685,-271.173 358.507,-275.148 358.842,-268.156"/>
<text text-anchor="middle" x="397.347" y="-275.3" font-family="Times New Roman,serif" font-size="14.00">pod/done</text>
</g>
</g>
</svg>
