<?xml version="1.0" encoding="UTF-8" standalone="no"?>
<!DOCTYPE svg PUBLIC "-//W3C//DTD SVG 1.1//EN"
 "http://www.w3.org/Graphics/SVG/1.1/DTD/svg11.dtd">
<!-- Generated by graphviz version 2.38.0 (20140413.2041)
 -->
<!-- Title: %3 Pages: 1 -->
<svg width="482pt" height="465pt"
 viewBox="0.00 0.00 481.85 465.00" xmlns="http://www.w3.org/2000/svg" xmlns:xlink="http://www.w3.org/1999/xlink">
<g id="graph0" class="graph" transform="scale(1 1) rotate(0) translate(4 461)">
<title>%3</title>
<polygon fill="white" stroke="none" points="-4,4 -4,-461 477.847,-461 477.847,4 -4,4"/>
<!-- fake -->
<g id="node1" class="node"><title>fake</title>
</g>
<!-- state0 -->
<g id="node4" class="node"><title>state0</title>
<ellipse fill="none" stroke="black" cx="166" cy="-366" rx="31.6951" ry="18"/>
<text text-anchor="middle" x="166" y="-362.3" font-family="Times New Roman,serif" font-size="14.00">state0</text>
</g>
<!-- fake&#45;&gt;state0 -->
<g id="edge1" class="edge"><title>fake&#45;&gt;state0</title>
<path fill="none" stroke="black" stroke-width="2" d="M166,-420.813C166,-412.789 166,-403.047 166,-394.069"/>
<polygon fill="black" stroke="black" stroke-width="2" points="169.5,-394.029 166,-384.029 162.5,-394.029 169.5,-394.029"/>
</g>
<!-- state3 -->
<g id="node2" class="node"><title>state3</title>
<ellipse fill="none" stroke="black" cx="155" cy="-192" rx="31.6951" ry="18"/>
<text text-anchor="middle" x="155" y="-188.3" font-family="Times New Roman,serif" font-size="14.00">state3</text>
</g>
<!-- state3&#45;&gt;state3 -->
<g id="edge14" class="edge"><title>state3&#45;&gt;state3</title>
<path fill="none" stroke="black" d="M186.154,-195.938C196.539,-195.938 204.847,-194.625 204.847,-192 204.847,-190.318 201.438,-189.175 196.257,-188.571"/>
<polygon fill="black" stroke="black" points="196.318,-185.07 186.154,-188.063 195.966,-192.061 196.318,-185.07"/>
<text text-anchor="middle" x="235.847" y="-188.3" font-family="Times New Roman,serif" font-size="14.00">water/done</text>
</g>
<!-- state3&#45;&gt;state3 -->
<g id="edge15" class="edge"><title>state3&#45;&gt;state3</title>
<path fill="none" stroke="black" d="M185.031,-198.23C219.489,-201.726 266.847,-199.649 266.847,-192 266.847,-185.068 227.952,-182.712 195.012,-184.934"/>
<polygon fill="black" stroke="black" points="194.703,-181.447 185.031,-185.77 195.288,-188.423 194.703,-181.447"/>
<text text-anchor="middle" x="294.347" y="-188.3" font-family="Times New Roman,serif" font-size="14.00">pod/done</text>
</g>
<!-- state3&#45;&gt;state0 -->
<g id="edge17" class="edge"><title>state3&#45;&gt;state0</title>
<path fill="none" stroke="black" d="M173.181,-206.956C187.758,-219.356 207.186,-238.904 216,-261 232.492,-302.344 224.786,-319.245 219,-330 214.719,-337.957 207.749,-344.405 200.25,-349.497"/>
<polygon fill="black" stroke="black" points="198.099,-346.706 191.333,-354.858 201.707,-352.705 198.099,-346.706"/>
<text text-anchor="middle" x="256.5" y="-275.3" font-family="Times New Roman,serif" font-size="14.00">clean/done</text>
</g>
<!-- state4 -->
<g id="node5" class="node"><title>state4</title>
<ellipse fill="none" stroke="black" cx="218" cy="-105" rx="31.6951" ry="18"/>
<text text-anchor="middle" x="218" y="-101.3" font-family="Times New Roman,serif" font-size="14.00">state4</text>
</g>
<!-- state3&#45;&gt;state4 -->
<g id="edge16" class="edge"><title>state3&#45;&gt;state4</title>
<path fill="none" stroke="black" d="M166.85,-175.012C176.177,-162.427 189.332,-144.679 199.965,-130.333"/>
<polygon fill="black" stroke="black" points="203.061,-132.034 206.203,-121.916 197.437,-127.866 203.061,-132.034"/>
<text text-anchor="middle" x="229" y="-144.8" font-family="Times New Roman,serif" font-size="14.00">button/coffee</text>
</g>
<!-- state1 -->
<g id="node3" class="node"><title>state1</title>
<ellipse fill="none" stroke="black" cx="95" cy="-279" rx="31.6951" ry="18"/>
<text text-anchor="middle" x="95" y="-275.3" font-family="Times New Roman,serif" font-size="14.00">state1</text>
</g>
<!-- state1&#45;&gt;state3 -->
<g id="edge7" class="edge"><title>state1&#45;&gt;state3</title>
<path fill="none" stroke="black" d="M106.286,-262.012C115.169,-249.427 127.697,-231.679 137.824,-217.333"/>
<polygon fill="black" stroke="black" points="140.858,-219.104 143.765,-208.916 135.139,-215.067 140.858,-219.104"/>
<text text-anchor="middle" x="156.5" y="-231.8" font-family="Times New Roman,serif" font-size="14.00">pod/done</text>
</g>
<!-- state1&#45;&gt;state1 -->
<g id="edge6" class="edge"><title>state1&#45;&gt;state1</title>
<path fill="none" stroke="black" d="M123.685,-286.827C135.191,-287.269 144.847,-284.66 144.847,-279 144.847,-275.109 140.283,-272.659 133.692,-271.652"/>
<polygon fill="black" stroke="black" points="133.842,-268.156 123.685,-271.173 133.507,-275.148 133.842,-268.156"/>
<text text-anchor="middle" x="175.847" y="-275.3" font-family="Times New Roman,serif" font-size="14.00">water/done</text>
</g>
<!-- state1&#45;&gt;state0 -->
<g id="edge9" class="edge"><title>state1&#45;&gt;state0</title>
<path fill="none" stroke="black" d="M83.175,-295.889C77.0103,-306.26 72.061,-319.729 79,-330 89.4377,-345.45 107.948,-354.081 125.219,-358.902"/>
<polygon fill="black" stroke="black" points="124.63,-362.361 135.174,-361.323 126.285,-355.559 124.63,-362.361"/>
<text text-anchor="middle" x="109.5" y="-318.8" font-family="Times New Roman,serif" font-size="14.00">clean/done</text>
</g>
<!-- state2 -->
<g id="node6" class="node"><title>state2</title>
<ellipse fill="none" stroke="black" cx="128" cy="-18" rx="31.6951" ry="18"/>
<text text-anchor="middle" x="128" y="-14.3" font-family="Times New Roman,serif" font-size="14.00">state2</text>
</g>
<!-- state1&#45;&gt;state2 -->
<g id="edge8" class="edge"><title>state1&#45;&gt;state2</title>
<path fill="none" stroke="black" d="M95.475,-260.962C96.7858,-223.284 101.459,-130.193 117,-54 117.554,-51.2852 118.237,-48.4824 118.989,-45.7"/>
<polygon fill="black" stroke="black" points="122.407,-46.488 121.913,-35.9047 115.699,-44.4863 122.407,-46.488"/>
<text text-anchor="middle" x="137.5" y="-144.8" font-family="Times New Roman,serif" font-size="14.00">button/none</text>
</g>
<!-- state0&#45;&gt;state1 -->
<g id="edge2" class="edge"><title>state0&#45;&gt;state1</title>
<path fill="none" stroke="black" d="M161.073,-348.009C157.498,-337.704 151.896,-324.714 144,-315 138.807,-308.612 132.172,-302.842 125.474,-297.914"/>
<polygon fill="black" stroke="black" points="127.285,-294.912 117.06,-292.14 123.325,-300.684 127.285,-294.912"/>
<text text-anchor="middle" x="184" y="-318.8" font-family="Times New Roman,serif" font-size="14.00">water/done</text>
</g>
<!-- state0&#45;&gt;state0 -->
<g id="edge3" class="edge"><title>state0&#45;&gt;state0</title>
<path fill="none" stroke="black" d="M197.64,-369.374C207.797,-369.34 215.847,-368.215 215.847,-366 215.847,-364.616 212.703,-363.657 207.864,-363.125"/>
<polygon fill="black" stroke="black" points="207.798,-359.617 197.64,-362.626 207.457,-366.609 207.798,-359.617"/>
<text text-anchor="middle" x="243.347" y="-362.3" font-family="Times New Roman,serif" font-size="14.00">pod/done</text>
</g>
<!-- state0&#45;&gt;state0 -->
<g id="edge5" class="edge"><title>state0&#45;&gt;state0</title>
<path fill="none" stroke="black" d="M196.337,-371.481C228.597,-374.278 270.847,-372.451 270.847,-366 270.847,-360.204 236.743,-358.141 206.421,-359.81"/>
<polygon fill="black" stroke="black" points="206.067,-356.326 196.337,-360.519 206.558,-363.309 206.067,-356.326"/>
<text text-anchor="middle" x="301.347" y="-362.3" font-family="Times New Roman,serif" font-size="14.00">clean/done</text>
</g>
<!-- state0&#45;&gt;state2 -->
<g id="edge4" class="edge"><title>state0&#45;&gt;state2</title>
<path fill="none" stroke="black" d="M134.386,-362.792C86.2226,-357.519 0,-339.737 0,-280 0,-280 0,-280 0,-104 0,-60.902 50.9813,-38.3478 88.595,-27.5725"/>
<polygon fill="black" stroke="black" points="89.5643,-30.9362 98.3125,-24.9597 87.7467,-24.1763 89.5643,-30.9362"/>
<text text-anchor="middle" x="33.5" y="-188.3" font-family="Times New Roman,serif" font-size="14.00">button/none</text>
</g>
<!-- state4&#45;&gt;state0 -->
<g id="edge21" class="edge"><title>state4&#45;&gt;state0</title>
<path fill="none" stroke="black" d="M247.568,-111.971C278.971,-120.063 327.045,-137.867 349,-174 357.308,-187.674 353.637,-194.687 349,-210 327.771,-280.115 300.218,-294.748 236,-330 223.97,-336.604 210.537,-343.445 198.68,-349.308"/>
<polygon fill="black" stroke="black" points="197.003,-346.231 189.566,-353.777 200.085,-352.517 197.003,-346.231"/>
<text text-anchor="middle" x="373.5" y="-231.8" font-family="Times New Roman,serif" font-size="14.00">clean/done</text>
</g>
<!-- state4&#45;&gt;state2 -->
<g id="edge18" class="edge"><title>state4&#45;&gt;state2</title>
<path fill="none" stroke="black" d="M213.706,-87.0624C210.328,-76.5207 204.709,-63.2551 196,-54 187.257,-44.7079 175.496,-37.4602 164.215,-32.0313"/>
<polygon fill="black" stroke="black" points="165.488,-28.7667 154.929,-27.8939 162.639,-35.1608 165.488,-28.7667"/>
<text text-anchor="middle" x="237.5" y="-57.8" font-family="Times New Roman,serif" font-size="14.00">water/none</text>
</g>
<!-- state4&#45;&gt;state2 -->
<g id="edge19" class="edge"><title>state4&#45;&gt;state2</title>
<path fill="none" stroke="black" d="M243.057,-93.6947C262.433,-84.2266 284.081,-69.3686 272,-54 259.429,-38.0073 207.443,-28.4176 169.533,-23.4227"/>
<polygon fill="black" stroke="black" points="169.616,-19.9057 159.258,-22.1342 168.745,-26.8513 169.616,-19.9057"/>
<text text-anchor="middle" x="303" y="-57.8" font-family="Times New Roman,serif" font-size="14.00">pod/none</text>
</g>
<!-- state4&#45;&gt;state2 -->
<g id="edge20" class="edge"><title>state4&#45;&gt;state2</title>
<path fill="none" stroke="black" d="M186.486,-101.186C165.27,-97.4649 138.745,-88.8592 125,-69 120.337,-62.2629 119.513,-53.7121 120.333,-45.5952"/>
<polygon fill="black" stroke="black" points="123.785,-46.1729 122.087,-35.7151 116.893,-44.9495 123.785,-46.1729"/>
<text text-anchor="middle" x="158.5" y="-57.8" font-family="Times New Roman,serif" font-size="14.00">button/none</text>
</g>
<!-- state2&#45;&gt;state2 -->
<g id="edge10" class="edge"><title>state2&#45;&gt;state2</title>
<path fill="none" stroke="black" d="M160.122,-19.9668C170.05,-19.9271 177.847,-19.2715 177.847,-18 177.847,-17.2252 174.952,-16.6791 170.443,-16.3617"/>
<polygon fill="black" stroke="black" points="170.228,-12.8531 160.122,-16.0332 170.005,-19.8496 170.228,-12.8531"/>
<text text-anchor="middle" x="208.347" y="-14.3" font-family="Times New Roman,serif" font-size="14.00">water/none</text>
</g>
<!-- state2&#45;&gt;state2 -->
<g id="edge11" class="edge"><title>state2&#45;&gt;state2</title>
<path fill="none" stroke="black" d="M159.508,-21.1972C193.514,-22.8289 238.847,-21.7632 238.847,-18 238.847,-14.6043 201.936,-13.4049 169.742,-14.4019"/>
<polygon fill="black" stroke="black" points="169.363,-10.914 159.508,-14.8028 169.637,-17.9086 169.363,-10.914"/>
<text text-anchor="middle" x="265.847" y="-14.3" font-family="Times New Roman,serif" font-size="14.00">pod/none</text>
</g>
<!-- state2&#45;&gt;state2 -->
<g id="edge12" class="edge"><title>state2&#45;&gt;state2</title>
<path fill="none" stroke="black" d="M159.301,-22.0114C209.282,-25.5049 292.847,-24.1677 292.847,-18 292.847,-12.2298 219.707,-10.6876 169.352,-13.3733"/>
<polygon fill="black" stroke="black" points="169.068,-9.88402 159.301,-13.9886 169.496,-16.8709 169.068,-9.88402"/>
<text text-anchor="middle" x="326.347" y="-14.3" font-family="Times New Roman,serif" font-size="14.00">button/none</text>
</g>
<!-- state2&#45;&gt;state2 -->
<g id="edge13" class="edge"><title>state2&#45;&gt;state2</title>
<path fill="none" stroke="black" d="M158.902,-22.5238C225.225,-28.1827 359.847,-26.6748 359.847,-18 359.847,-9.74877 238.051,-7.98162 169.082,-12.6985"/>
<polygon fill="black" stroke="black" points="168.607,-9.22459 158.902,-13.4762 169.14,-16.2043 168.607,-9.22459"/>
<text text-anchor="middle" x="389.847" y="-14.3" font-family="Times New Roman,serif" font-size="14.00">clean/none</text>
</g>
</g>
</svg>
