<?xml version="1.0" encoding="UTF-8" standalone="no"?>
<!DOCTYPE svg PUBLIC "-//W3C//DTD SVG 1.1//EN"
 "http://www.w3.org/Graphics/SVG/1.1/DTD/svg11.dtd">
<!-- Generated by graphviz version 2.38.0 (20140413.2041)
 -->
<!-- Title: %3 Pages: 1 -->
<svg width="386pt" height="204pt"
 viewBox="0.00 0.00 385.69 204.00" xmlns="http://www.w3.org/2000/svg" xmlns:xlink="http://www.w3.org/1999/xlink">
<g id="graph0" class="graph" transform="scale(1 1) rotate(0) translate(4 200)">
<title>%3</title>
<polygon fill="white" stroke="none" points="-4,4 -4,-200 381.694,-200 381.694,4 -4,4"/>
<!-- fake -->
<g id="node1" class="node"><title>fake</title>
</g>
<!-- state0 -->
<g id="node3" class="node"><title>state0</title>
<ellipse fill="none" stroke="black" cx="31.8472" cy="-105" rx="31.6951" ry="18"/>
<text text-anchor="middle" x="31.8472" y="-101.3" font-family="Times New Roman,serif" font-size="14.00">state0</text>
</g>
<!-- fake&#45;&gt;state0 -->
<g id="edge1" class="edge"><title>fake&#45;&gt;state0</title>
<path fill="none" stroke="black" stroke-width="2" d="M31.8472,-159.813C31.8472,-151.789 31.8472,-142.047 31.8472,-133.069"/>
<polygon fill="black" stroke="black" stroke-width="2" points="35.3473,-133.029 31.8472,-123.029 28.3473,-133.029 35.3473,-133.029"/>
</g>
<!-- state1 -->
<g id="node2" class="node"><title>state1</title>
<ellipse fill="none" stroke="black" cx="31.8472" cy="-18" rx="31.6951" ry="18"/>
<text text-anchor="middle" x="31.8472" y="-14.3" font-family="Times New Roman,serif" font-size="14.00">state1</text>
</g>
<!-- state1&#45;&gt;state1 -->
<g id="edge6" class="edge"><title>state1&#45;&gt;state1</title>
<path fill="none" stroke="black" d="M63.969,-19.9668C73.8976,-19.9271 81.6943,-19.2715 81.6943,-18 81.6943,-17.2252 78.7991,-16.6791 74.2905,-16.3617"/>
<polygon fill="black" stroke="black" points="74.0753,-12.8531 63.969,-16.0332 73.8525,-19.8496 74.0753,-12.8531"/>
<text text-anchor="middle" x="112.194" y="-14.3" font-family="Times New Roman,serif" font-size="14.00">water/none</text>
</g>
<!-- state1&#45;&gt;state1 -->
<g id="edge7" class="edge"><title>state1&#45;&gt;state1</title>
<path fill="none" stroke="black" d="M63.3551,-21.1972C97.3612,-22.8289 142.694,-21.7632 142.694,-18 142.694,-14.6043 105.783,-13.4049 73.5892,-14.4019"/>
<polygon fill="black" stroke="black" points="73.2105,-10.914 63.3551,-14.8028 73.4845,-17.9086 73.2105,-10.914"/>
<text text-anchor="middle" x="169.694" y="-14.3" font-family="Times New Roman,serif" font-size="14.00">pod/none</text>
</g>
<!-- state1&#45;&gt;state1 -->
<g id="edge8" class="edge"><title>state1&#45;&gt;state1</title>
<path fill="none" stroke="black" d="M63.148,-22.0114C113.129,-25.5049 196.694,-24.1677 196.694,-18 196.694,-12.2298 123.554,-10.6876 73.1994,-13.3733"/>
<polygon fill="black" stroke="black" points="72.9154,-9.88402 63.148,-13.9886 73.3432,-16.8709 72.9154,-9.88402"/>
<text text-anchor="middle" x="230.194" y="-14.3" font-family="Times New Roman,serif" font-size="14.00">button/none</text>
</g>
<!-- state1&#45;&gt;state1 -->
<g id="edge9" class="edge"><title>state1&#45;&gt;state1</title>
<path fill="none" stroke="black" d="M62.7496,-22.5238C129.072,-28.1827 263.694,-26.6748 263.694,-18 263.694,-9.74877 141.898,-7.98162 72.9297,-12.6985"/>
<polygon fill="black" stroke="black" points="72.4539,-9.22459 62.7496,-13.4762 72.9871,-16.2043 72.4539,-9.22459"/>
<text text-anchor="middle" x="293.694" y="-14.3" font-family="Times New Roman,serif" font-size="14.00">clean/none</text>
</g>
<!-- state0&#45;&gt;state1 -->
<g id="edge4" class="edge"><title>state0&#45;&gt;state1</title>
<path fill="none" stroke="black" d="M31.8472,-86.799C31.8472,-75.1626 31.8472,-59.5479 31.8472,-46.2368"/>
<polygon fill="black" stroke="black" points="35.3473,-46.1754 31.8472,-36.1754 28.3473,-46.1755 35.3473,-46.1754"/>
<text text-anchor="middle" x="65.3472" y="-57.8" font-family="Times New Roman,serif" font-size="14.00">button/none</text>
</g>
<!-- state0&#45;&gt;state0 -->
<g id="edge2" class="edge"><title>state0&#45;&gt;state0</title>
<path fill="none" stroke="black" d="M63.4869,-107.249C73.6441,-107.226 81.6943,-106.477 81.6943,-105 81.6943,-104.077 78.5497,-103.438 73.7115,-103.083"/>
<polygon fill="black" stroke="black" points="73.5954,-99.5776 63.4869,-102.751 73.3678,-106.574 73.5954,-99.5776"/>
<text text-anchor="middle" x="112.694" y="-101.3" font-family="Times New Roman,serif" font-size="14.00">water/done</text>
</g>
<!-- state0&#45;&gt;state0 -->
<g id="edge3" class="edge"><title>state0&#45;&gt;state0</title>
<path fill="none" stroke="black" d="M63.2702,-108.639C97.5972,-110.525 143.694,-109.313 143.694,-105 143.694,-101.109 106.161,-99.7411 73.6098,-100.897"/>
<polygon fill="black" stroke="black" points="73.1032,-97.4164 63.2702,-101.361 73.4171,-104.409 73.1032,-97.4164"/>
<text text-anchor="middle" x="171.194" y="-101.3" font-family="Times New Roman,serif" font-size="14.00">pod/done</text>
</g>
<!-- state0&#45;&gt;state0 -->
<g id="edge5" class="edge"><title>state0&#45;&gt;state0</title>
<path fill="none" stroke="black" d="M63.0119,-109.555C113.479,-113.585 198.694,-112.066 198.694,-105 198.694,-98.389 124.11,-96.6342 73.1711,-99.7354"/>
<polygon fill="black" stroke="black" points="72.7435,-96.2566 63.0119,-100.445 73.2317,-103.24 72.7435,-96.2566"/>
<text text-anchor="middle" x="229.194" y="-101.3" font-family="Times New Roman,serif" font-size="14.00">clean/done</text>
</g>
</g>
</svg>
