<?xml version="1.0" encoding="UTF-8" standalone="no"?>
<!DOCTYPE svg PUBLIC "-//W3C//DTD SVG 1.1//EN"
 "http://www.w3.org/Graphics/SVG/1.1/DTD/svg11.dtd">
<!-- Generated by graphviz version 2.38.0 (20140413.2041)
 -->
<!-- Title: %3 Pages: 1 -->
<svg width="529pt" height="465pt"
 viewBox="0.00 0.00 529.00 465.00" xmlns="http://www.w3.org/2000/svg" xmlns:xlink="http://www.w3.org/1999/xlink">
<g id="graph0" class="graph" transform="scale(1 1) rotate(0) translate(4 461)">
<title>%3</title>
<polygon fill="white" stroke="none" points="-4,4 -4,-461 525,-461 525,4 -4,4"/>
<!-- fake -->
<g id="node1" class="node"><title>fake</title>
</g>
<!-- s0 -->
<g id="node5" class="node"><title>s0</title>
<ellipse fill="none" stroke="black" cx="168" cy="-366" rx="27" ry="18"/>
<text text-anchor="middle" x="168" y="-362.3" font-family="Times New Roman,serif" font-size="14.00">s0</text>
</g>
<!-- fake&#45;&gt;s0 -->
<g id="edge1" class="edge"><title>fake&#45;&gt;s0</title>
<path fill="none" stroke="black" stroke-width="2" d="M168,-420.813C168,-412.789 168,-403.047 168,-394.069"/>
<polygon fill="black" stroke="black" stroke-width="2" points="171.5,-394.029 168,-384.029 164.5,-394.029 171.5,-394.029"/>
</g>
<!-- s1 -->
<g id="node2" class="node"><title>s1</title>
<ellipse fill="none" stroke="black" cx="173" cy="-18" rx="27" ry="18"/>
<text text-anchor="middle" x="173" y="-14.3" font-family="Times New Roman,serif" font-size="14.00">s1</text>
</g>
<!-- s1&#45;&gt;s1 -->
<g id="edge6" class="edge"><title>s1&#45;&gt;s1</title>
<path fill="none" stroke="black" d="M200.241,-19.9668C210.024,-20.0091 218,-19.3535 218,-18 218,-17.1752 215.038,-16.6096 210.51,-16.3031"/>
<polygon fill="black" stroke="black" points="210.329,-12.7972 200.241,-16.0332 210.145,-19.7948 210.329,-12.7972"/>
<text text-anchor="middle" x="248.5" y="-14.3" font-family="Times New Roman,serif" font-size="14.00">water/none</text>
</g>
<!-- s1&#45;&gt;s1 -->
<g id="edge7" class="edge"><title>s1&#45;&gt;s1</title>
<path fill="none" stroke="black" d="M199.709,-21.0285C232.425,-22.8957 279,-21.8862 279,-18 279,-14.5085 241.405,-13.339 210.043,-14.4916"/>
<polygon fill="black" stroke="black" points="209.536,-11.0112 199.709,-14.9715 209.861,-18.0037 209.536,-11.0112"/>
<text text-anchor="middle" x="306" y="-14.3" font-family="Times New Roman,serif" font-size="14.00">pod/none</text>
</g>
<!-- s1&#45;&gt;s1 -->
<g id="edge8" class="edge"><title>s1&#45;&gt;s1</title>
<path fill="none" stroke="black" d="M199.518,-21.7411C247.297,-25.5686 333,-24.3215 333,-18 333,-12.0983 258.302,-10.6194 209.502,-13.5636"/>
<polygon fill="black" stroke="black" points="209.251,-10.0725 199.518,-14.2589 209.737,-17.0556 209.251,-10.0725"/>
<text text-anchor="middle" x="366.5" y="-14.3" font-family="Times New Roman,serif" font-size="14.00">button/none</text>
</g>
<!-- s1&#45;&gt;s1 -->
<g id="edge9" class="edge"><title>s1&#45;&gt;s1</title>
<path fill="none" stroke="black" d="M199.345,-22.195C262.527,-28.2372 400,-26.8389 400,-18 400,-9.60998 276.135,-7.924 209.518,-12.9421"/>
<polygon fill="black" stroke="black" points="209.013,-9.47216 199.345,-13.805 209.605,-16.4471 209.013,-9.47216"/>
<text text-anchor="middle" x="430" y="-14.3" font-family="Times New Roman,serif" font-size="14.00">clean/none</text>
</g>
<!-- s4 -->
<g id="node3" class="node"><title>s4</title>
<ellipse fill="none" stroke="black" cx="163" cy="-279" rx="27" ry="18"/>
<text text-anchor="middle" x="163" y="-275.3" font-family="Times New Roman,serif" font-size="14.00">s4</text>
</g>
<!-- s4&#45;&gt;s1 -->
<g id="edge20" class="edge"><title>s4&#45;&gt;s1</title>
<path fill="none" stroke="black" d="M152.926,-262.191C129.917,-223.892 78.4436,-124.136 118,-54 123.213,-44.7579 131.983,-37.5911 141.007,-32.219"/>
<polygon fill="black" stroke="black" points="142.811,-35.2238 149.993,-27.4347 139.521,-29.045 142.811,-35.2238"/>
<text text-anchor="middle" x="141.5" y="-144.8" font-family="Times New Roman,serif" font-size="14.00">button/none</text>
</g>
<!-- s4&#45;&gt;s4 -->
<g id="edge19" class="edge"><title>s4&#45;&gt;s4</title>
<path fill="none" stroke="black" d="M187.532,-286.752C198.508,-287.49 208,-284.906 208,-279 208,-275.032 203.715,-272.563 197.574,-271.594"/>
<polygon fill="black" stroke="black" points="197.647,-268.095 187.532,-271.248 197.406,-275.091 197.647,-268.095"/>
<text text-anchor="middle" x="235.5" y="-275.3" font-family="Times New Roman,serif" font-size="14.00">pod/done</text>
</g>
<!-- s3 -->
<g id="node4" class="node"><title>s3</title>
<ellipse fill="none" stroke="black" cx="163" cy="-192" rx="27" ry="18"/>
<text text-anchor="middle" x="163" y="-188.3" font-family="Times New Roman,serif" font-size="14.00">s3</text>
</g>
<!-- s4&#45;&gt;s3 -->
<g id="edge18" class="edge"><title>s4&#45;&gt;s3</title>
<path fill="none" stroke="black" d="M163,-260.799C163,-249.163 163,-233.548 163,-220.237"/>
<polygon fill="black" stroke="black" points="166.5,-220.175 163,-210.175 159.5,-220.175 166.5,-220.175"/>
<text text-anchor="middle" x="194" y="-231.8" font-family="Times New Roman,serif" font-size="14.00">water/done</text>
</g>
<!-- s4&#45;&gt;s0 -->
<g id="edge21" class="edge"><title>s4&#45;&gt;s0</title>
<path fill="none" stroke="black" d="M164.01,-297.175C164.694,-308.806 165.613,-324.419 166.396,-337.734"/>
<polygon fill="black" stroke="black" points="162.907,-338.022 166.988,-347.799 169.895,-337.611 162.907,-338.022"/>
<text text-anchor="middle" x="195.5" y="-318.8" font-family="Times New Roman,serif" font-size="14.00">clean/done</text>
</g>
<!-- s3&#45;&gt;s3 -->
<g id="edge14" class="edge"><title>s3&#45;&gt;s3</title>
<path fill="none" stroke="black" d="M189.795,-195.929C199.78,-196.058 208,-194.748 208,-192 208,-190.282 204.789,-189.127 199.943,-188.533"/>
<polygon fill="black" stroke="black" points="199.944,-185.03 189.795,-188.071 199.625,-192.022 199.944,-185.03"/>
<text text-anchor="middle" x="239" y="-188.3" font-family="Times New Roman,serif" font-size="14.00">water/done</text>
</g>
<!-- s3&#45;&gt;s3 -->
<g id="edge15" class="edge"><title>s3&#45;&gt;s3</title>
<path fill="none" stroke="black" d="M188.578,-197.906C221.625,-201.844 270,-199.875 270,-192 270,-184.894 230.612,-182.597 198.639,-185.109"/>
<polygon fill="black" stroke="black" points="198.19,-181.636 188.578,-186.094 198.872,-188.603 198.19,-181.636"/>
<text text-anchor="middle" x="297.5" y="-188.3" font-family="Times New Roman,serif" font-size="14.00">pod/done</text>
</g>
<!-- s3&#45;&gt;s0 -->
<g id="edge17" class="edge"><title>s3&#45;&gt;s0</title>
<path fill="none" stroke="black" d="M140.022,-201.628C116.565,-211.825 81.4709,-231.261 66,-261 58.6159,-275.194 62.0466,-281.496 66,-297 70.128,-313.189 71.5855,-318.82 84,-330 97.8053,-342.432 116.652,-350.828 132.995,-356.273"/>
<polygon fill="black" stroke="black" points="132.193,-359.688 142.781,-359.291 134.256,-352.999 132.193,-359.688"/>
<text text-anchor="middle" x="96.5" y="-275.3" font-family="Times New Roman,serif" font-size="14.00">clean/done</text>
</g>
<!-- s5 -->
<g id="node7" class="node"><title>s5</title>
<ellipse fill="none" stroke="black" cx="218" cy="-105" rx="27" ry="18"/>
<text text-anchor="middle" x="218" y="-101.3" font-family="Times New Roman,serif" font-size="14.00">s5</text>
</g>
<!-- s3&#45;&gt;s5 -->
<g id="edge16" class="edge"><title>s3&#45;&gt;s5</title>
<path fill="none" stroke="black" d="M173.345,-175.012C181.488,-162.427 192.973,-144.679 202.255,-130.333"/>
<polygon fill="black" stroke="black" points="205.207,-132.213 207.701,-121.916 199.33,-128.41 205.207,-132.213"/>
<text text-anchor="middle" x="231" y="-144.8" font-family="Times New Roman,serif" font-size="14.00">button/coffee</text>
</g>
<!-- s0&#45;&gt;s1 -->
<g id="edge4" class="edge"><title>s0&#45;&gt;s1</title>
<path fill="none" stroke="black" d="M141.008,-363.418C93.5182,-359.02 0,-342.433 0,-280 0,-280 0,-280 0,-104 0,-43.89 85.1726,-26.2858 135.993,-21.1319"/>
<polygon fill="black" stroke="black" points="136.323,-24.6165 145.969,-20.2341 135.695,-17.6447 136.323,-24.6165"/>
<text text-anchor="middle" x="33.5" y="-188.3" font-family="Times New Roman,serif" font-size="14.00">button/none</text>
</g>
<!-- s0&#45;&gt;s4 -->
<g id="edge3" class="edge"><title>s0&#45;&gt;s4</title>
<path fill="none" stroke="black" d="M142.131,-360.696C124.43,-356.258 102.209,-347.408 91,-330 87.3908,-324.395 87.4635,-320.651 91,-315 93.48,-311.037 113.242,-301.572 131.434,-293.483"/>
<polygon fill="black" stroke="black" points="132.954,-296.638 140.705,-289.414 130.141,-290.228 132.954,-296.638"/>
<text text-anchor="middle" x="118.5" y="-318.8" font-family="Times New Roman,serif" font-size="14.00">pod/done</text>
</g>
<!-- s0&#45;&gt;s0 -->
<g id="edge5" class="edge"><title>s0&#45;&gt;s0</title>
<path fill="none" stroke="black" d="M193.443,-372.691C204.028,-373.152 213,-370.922 213,-366 213,-362.77 209.136,-360.699 203.488,-359.788"/>
<polygon fill="black" stroke="black" points="203.599,-356.289 193.443,-359.309 203.266,-363.281 203.599,-356.289"/>
<text text-anchor="middle" x="243.5" y="-362.3" font-family="Times New Roman,serif" font-size="14.00">clean/done</text>
</g>
<!-- s2 -->
<g id="node6" class="node"><title>s2</title>
<ellipse fill="none" stroke="black" cx="313" cy="-279" rx="27" ry="18"/>
<text text-anchor="middle" x="313" y="-275.3" font-family="Times New Roman,serif" font-size="14.00">s2</text>
</g>
<!-- s0&#45;&gt;s2 -->
<g id="edge2" class="edge"><title>s0&#45;&gt;s2</title>
<path fill="none" stroke="black" d="M194.49,-362.517C232.457,-358.349 299.393,-348.523 314,-330 319.065,-323.577 320.267,-315.109 319.762,-306.971"/>
<polygon fill="black" stroke="black" points="323.222,-306.439 318.373,-297.019 316.289,-307.407 323.222,-306.439"/>
<text text-anchor="middle" x="350" y="-318.8" font-family="Times New Roman,serif" font-size="14.00">water/done</text>
</g>
<!-- s2&#45;&gt;s1 -->
<g id="edge12" class="edge"><title>s2&#45;&gt;s1</title>
<path fill="none" stroke="black" d="M325.008,-262.561C334.425,-249.416 346.78,-229.595 352,-210 364.699,-162.332 338.423,-63.7227 329,-54 312.74,-37.2227 250.405,-27.3756 209.624,-22.5992"/>
<polygon fill="black" stroke="black" points="209.836,-19.1012 199.509,-21.4659 209.057,-26.0577 209.836,-19.1012"/>
<text text-anchor="middle" x="387.5" y="-144.8" font-family="Times New Roman,serif" font-size="14.00">button/none</text>
</g>
<!-- s2&#45;&gt;s3 -->
<g id="edge11" class="edge"><title>s2&#45;&gt;s3</title>
<path fill="none" stroke="black" d="M293.807,-266.209C276.883,-255.9 251.485,-240.644 229,-228 217.253,-221.395 204.169,-214.385 192.769,-208.388"/>
<polygon fill="black" stroke="black" points="194.138,-205.154 183.654,-203.62 190.892,-211.357 194.138,-205.154"/>
<text text-anchor="middle" x="281.5" y="-231.8" font-family="Times New Roman,serif" font-size="14.00">pod/done</text>
</g>
<!-- s2&#45;&gt;s0 -->
<g id="edge13" class="edge"><title>s2&#45;&gt;s0</title>
<path fill="none" stroke="black" d="M292.022,-290.339C279.272,-296.897 262.837,-305.848 249,-315 240.026,-320.935 238.933,-324.004 230,-330 219.76,-336.873 208.084,-343.705 197.647,-349.484"/>
<polygon fill="black" stroke="black" points="195.971,-346.411 188.862,-354.266 199.318,-352.559 195.971,-346.411"/>
<text text-anchor="middle" x="279.5" y="-318.8" font-family="Times New Roman,serif" font-size="14.00">clean/done</text>
</g>
<!-- s2&#45;&gt;s2 -->
<g id="edge10" class="edge"><title>s2&#45;&gt;s2</title>
<path fill="none" stroke="black" d="M337.532,-286.752C348.508,-287.49 358,-284.906 358,-279 358,-275.032 353.715,-272.563 347.574,-271.594"/>
<polygon fill="black" stroke="black" points="347.647,-268.095 337.532,-271.248 347.406,-275.091 347.647,-268.095"/>
<text text-anchor="middle" x="389" y="-275.3" font-family="Times New Roman,serif" font-size="14.00">water/done</text>
</g>
<!-- s5&#45;&gt;s1 -->
<g id="edge22" class="edge"><title>s5&#45;&gt;s1</title>
<path fill="none" stroke="black" d="M211.537,-87.4578C207.47,-77.5561 201.888,-64.8317 196,-54 194.063,-50.4367 191.878,-46.7645 189.645,-43.2"/>
<polygon fill="black" stroke="black" points="192.495,-41.1618 184.11,-34.6849 186.626,-44.9768 192.495,-41.1618"/>
<text text-anchor="middle" x="233.5" y="-57.8" font-family="Times New Roman,serif" font-size="14.00">water/none</text>
</g>
<!-- s5&#45;&gt;s1 -->
<g id="edge23" class="edge"><title>s5&#45;&gt;s1</title>
<path fill="none" stroke="black" d="M239.942,-94.2633C257.991,-84.8395 278.954,-69.7089 268,-54 254.927,-35.2523 230.625,-26.5199 209.874,-22.4654"/>
<polygon fill="black" stroke="black" points="210.169,-18.9667 199.731,-20.7853 209.025,-25.8726 210.169,-18.9667"/>
<text text-anchor="middle" x="298" y="-57.8" font-family="Times New Roman,serif" font-size="14.00">pod/none</text>
</g>
<!-- s5&#45;&gt;s1 -->
<g id="edge24" class="edge"><title>s5&#45;&gt;s1</title>
<path fill="none" stroke="black" d="M191.38,-101.976C169.517,-98.7478 139.825,-90.4196 125,-69 116.21,-56.2996 128.302,-43.765 142.545,-34.4229"/>
<polygon fill="black" stroke="black" points="144.743,-37.1862 151.524,-29.0457 141.147,-31.1807 144.743,-37.1862"/>
<text text-anchor="middle" x="158.5" y="-57.8" font-family="Times New Roman,serif" font-size="14.00">button/none</text>
</g>
<!-- s5&#45;&gt;s0 -->
<g id="edge25" class="edge"><title>s5&#45;&gt;s0</title>
<path fill="none" stroke="black" d="M245.063,-106.102C298.458,-106.941 414.339,-112.126 439,-141 484.121,-193.829 462.25,-235.998 429,-297 417.301,-318.463 407.499,-320.442 385,-330 325.496,-355.278 249.712,-362.427 205.256,-364.372"/>
<polygon fill="black" stroke="black" points="205.056,-360.877 195.193,-364.746 205.316,-367.872 205.056,-360.877"/>
<text text-anchor="middle" x="490.5" y="-231.8" font-family="Times New Roman,serif" font-size="14.00">clean/done</text>
</g>
</g>
</svg>
