<?xml version="1.0" encoding="UTF-8" standalone="no"?>
<!DOCTYPE svg PUBLIC "-//W3C//DTD SVG 1.1//EN"
 "http://www.w3.org/Graphics/SVG/1.1/DTD/svg11.dtd">
<!-- Generated by graphviz version 2.38.0 (20140413.2041)
 -->
<!-- Title: %3 Pages: 1 -->
<svg width="379pt" height="117pt"
 viewBox="0.00 0.00 379.00 117.00" xmlns="http://www.w3.org/2000/svg" xmlns:xlink="http://www.w3.org/1999/xlink">
<g id="graph0" class="graph" transform="scale(1 1) rotate(0) translate(4 113)">
<title>%3</title>
<polygon fill="white" stroke="none" points="-4,4 -4,-113 375,-113 375,4 -4,4"/>
<!-- fake -->
<g id="node1" class="node"><title>fake</title>
</g>
<!-- s0 -->
<g id="node2" class="node"><title>s0</title>
<ellipse fill="none" stroke="black" cx="27" cy="-18" rx="27" ry="18"/>
<text text-anchor="middle" x="27" y="-14.3" font-family="Times New Roman,serif" font-size="14.00">s0</text>
</g>
<!-- fake&#45;&gt;s0 -->
<g id="edge1" class="edge"><title>fake&#45;&gt;s0</title>
<path fill="none" stroke="black" stroke-width="2" d="M27,-72.8129C27,-64.7895 27,-55.0475 27,-46.0691"/>
<polygon fill="black" stroke="black" stroke-width="2" points="30.5001,-46.0288 27,-36.0288 23.5001,-46.0289 30.5001,-46.0288"/>
</g>
<!-- s0&#45;&gt;s0 -->
<g id="edge2" class="edge"><title>s0&#45;&gt;s0</title>
<path fill="none" stroke="black" d="M54.2408,-19.6859C64.0239,-19.7221 72,-19.1602 72,-18 72,-17.293 69.0382,-16.8082 64.5105,-16.5455"/>
<polygon fill="black" stroke="black" points="64.3171,-13.0403 54.2408,-16.3141 64.1594,-20.0386 64.3171,-13.0403"/>
<text text-anchor="middle" x="103" y="-14.3" font-family="Times New Roman,serif" font-size="14.00">water/done</text>
</g>
<!-- s0&#45;&gt;s0 -->
<g id="edge3" class="edge"><title>s0&#45;&gt;s0</title>
<path fill="none" stroke="black" d="M53.8767,-20.5959C86.8766,-22.1963 134,-21.3311 134,-18 134,-14.9942 95.631,-13.9962 63.8916,-15.0058"/>
<polygon fill="black" stroke="black" points="63.7296,-11.5094 53.8767,-15.4041 64.0079,-18.5038 63.7296,-11.5094"/>
<text text-anchor="middle" x="161.5" y="-14.3" font-family="Times New Roman,serif" font-size="14.00">pod/done</text>
</g>
<!-- s0&#45;&gt;s0 -->
<g id="edge4" class="edge"><title>s0&#45;&gt;s0</title>
<path fill="none" stroke="black" d="M53.7212,-21.2066C102.008,-24.4873 189,-23.4185 189,-18 189,-12.9414 113.178,-11.6738 63.8161,-14.1973"/>
<polygon fill="black" stroke="black" points="63.4975,-10.71 53.7212,-14.7934 63.9102,-17.6978 63.4975,-10.71"/>
<text text-anchor="middle" x="222.5" y="-14.3" font-family="Times New Roman,serif" font-size="14.00">button/none</text>
</g>
<!-- s0&#45;&gt;s0 -->
<g id="edge5" class="edge"><title>s0&#45;&gt;s0</title>
<path fill="none" stroke="black" d="M53.4794,-21.5957C117.11,-26.7747 256,-25.5762 256,-18 256,-10.8086 130.858,-9.36343 63.7273,-13.6646"/>
<polygon fill="black" stroke="black" points="63.2015,-10.1934 53.4794,-14.4043 63.7055,-17.1752 63.2015,-10.1934"/>
<text text-anchor="middle" x="286.5" y="-14.3" font-family="Times New Roman,serif" font-size="14.00">clean/done</text>
</g>
</g>
</svg>
