<?xml version="1.0" encoding="UTF-8" standalone="no"?>
<!DOCTYPE svg PUBLIC "-//W3C//DTD SVG 1.1//EN"
 "http://www.w3.org/Graphics/SVG/1.1/DTD/svg11.dtd">
<!-- Generated by graphviz version 2.38.0 (20140413.2041)
 -->
<!-- Title: %3 Pages: 1 -->
<svg width="612pt" height="378pt"
 viewBox="0.00 0.00 612.00 378.00" xmlns="http://www.w3.org/2000/svg" xmlns:xlink="http://www.w3.org/1999/xlink">
<g id="graph0" class="graph" transform="scale(1 1) rotate(0) translate(4 374)">
<title>%3</title>
<polygon fill="white" stroke="none" points="-4,4 -4,-374 608,-374 608,4 -4,4"/>
<!-- fake -->
<g id="node1" class="node"><title>fake</title>
</g>
<!-- s0 -->
<g id="node5" class="node"><title>s0</title>
<ellipse fill="none" stroke="black" cx="188" cy="-279" rx="27" ry="18"/>
<text text-anchor="middle" x="188" y="-275.3" font-family="Times New Roman,serif" font-size="14.00">s0</text>
</g>
<!-- fake&#45;&gt;s0 -->
<g id="edge1" class="edge"><title>fake&#45;&gt;s0</title>
<path fill="none" stroke="black" stroke-width="2" d="M188,-333.813C188,-325.789 188,-316.047 188,-307.069"/>
<polygon fill="black" stroke="black" stroke-width="2" points="191.5,-307.029 188,-297.029 184.5,-307.029 191.5,-307.029"/>
</g>
<!-- s1 -->
<g id="node2" class="node"><title>s1</title>
<ellipse fill="none" stroke="black" cx="263" cy="-18" rx="27" ry="18"/>
<text text-anchor="middle" x="263" y="-14.3" font-family="Times New Roman,serif" font-size="14.00">s1</text>
</g>
<!-- s1&#45;&gt;s1 -->
<g id="edge6" class="edge"><title>s1&#45;&gt;s1</title>
<path fill="none" stroke="black" d="M290.241,-19.9668C300.024,-20.0091 308,-19.3535 308,-18 308,-17.1752 305.038,-16.6096 300.51,-16.3031"/>
<polygon fill="black" stroke="black" points="300.329,-12.7972 290.241,-16.0332 300.145,-19.7948 300.329,-12.7972"/>
<text text-anchor="middle" x="338.5" y="-14.3" font-family="Times New Roman,serif" font-size="14.00">water/none</text>
</g>
<!-- s1&#45;&gt;s1 -->
<g id="edge7" class="edge"><title>s1&#45;&gt;s1</title>
<path fill="none" stroke="black" d="M289.709,-21.0285C322.425,-22.8957 369,-21.8862 369,-18 369,-14.5085 331.405,-13.339 300.043,-14.4916"/>
<polygon fill="black" stroke="black" points="299.536,-11.0112 289.709,-14.9715 299.861,-18.0037 299.536,-11.0112"/>
<text text-anchor="middle" x="396" y="-14.3" font-family="Times New Roman,serif" font-size="14.00">pod/none</text>
</g>
<!-- s1&#45;&gt;s1 -->
<g id="edge8" class="edge"><title>s1&#45;&gt;s1</title>
<path fill="none" stroke="black" d="M289.518,-21.7411C337.297,-25.5686 423,-24.3215 423,-18 423,-12.0983 348.302,-10.6194 299.502,-13.5636"/>
<polygon fill="black" stroke="black" points="299.251,-10.0725 289.518,-14.2589 299.737,-17.0556 299.251,-10.0725"/>
<text text-anchor="middle" x="456.5" y="-14.3" font-family="Times New Roman,serif" font-size="14.00">button/none</text>
</g>
<!-- s1&#45;&gt;s1 -->
<g id="edge9" class="edge"><title>s1&#45;&gt;s1</title>
<path fill="none" stroke="black" d="M289.345,-22.195C352.527,-28.2372 490,-26.8389 490,-18 490,-9.60998 366.135,-7.924 299.518,-12.9421"/>
<polygon fill="black" stroke="black" points="299.013,-9.47216 289.345,-13.805 299.605,-16.4471 299.013,-9.47216"/>
<text text-anchor="middle" x="520" y="-14.3" font-family="Times New Roman,serif" font-size="14.00">clean/none</text>
</g>
<!-- s4 -->
<g id="node3" class="node"><title>s4</title>
<ellipse fill="none" stroke="black" cx="27" cy="-192" rx="27" ry="18"/>
<text text-anchor="middle" x="27" y="-188.3" font-family="Times New Roman,serif" font-size="14.00">s4</text>
</g>
<!-- s4&#45;&gt;s1 -->
<g id="edge20" class="edge"><title>s4&#45;&gt;s1</title>
<path fill="none" stroke="black" d="M19.9764,-174.312C11.8211,-152.012 1.77625,-112.37 21,-87 45.8529,-54.2012 165.421,-32.8234 226.667,-23.8392"/>
<polygon fill="black" stroke="black" points="227.279,-27.2874 236.682,-22.4046 226.286,-20.3582 227.279,-27.2874"/>
<text text-anchor="middle" x="54.5" y="-101.3" font-family="Times New Roman,serif" font-size="14.00">button/none</text>
</g>
<!-- s4&#45;&gt;s4 -->
<g id="edge19" class="edge"><title>s4&#45;&gt;s4</title>
<path fill="none" stroke="black" d="M51.5325,-199.752C62.5078,-200.49 72,-197.906 72,-192 72,-188.032 67.7151,-185.563 61.5743,-184.594"/>
<polygon fill="black" stroke="black" points="61.6472,-181.095 51.5325,-184.248 61.4059,-188.091 61.6472,-181.095"/>
<text text-anchor="middle" x="99.5" y="-188.3" font-family="Times New Roman,serif" font-size="14.00">pod/done</text>
</g>
<!-- s3 -->
<g id="node4" class="node"><title>s3</title>
<ellipse fill="none" stroke="black" cx="124" cy="-105" rx="27" ry="18"/>
<text text-anchor="middle" x="124" y="-101.3" font-family="Times New Roman,serif" font-size="14.00">s3</text>
</g>
<!-- s4&#45;&gt;s3 -->
<g id="edge18" class="edge"><title>s4&#45;&gt;s3</title>
<path fill="none" stroke="black" d="M43.0176,-176.964C58.6965,-163.225 82.7573,-142.14 100.582,-126.521"/>
<polygon fill="black" stroke="black" points="103.066,-128.998 108.28,-119.775 98.4528,-123.733 103.066,-128.998"/>
<text text-anchor="middle" x="112" y="-144.8" font-family="Times New Roman,serif" font-size="14.00">water/done</text>
</g>
<!-- s4&#45;&gt;s0 -->
<g id="edge21" class="edge"><title>s4&#45;&gt;s0</title>
<path fill="none" stroke="black" d="M44.074,-205.955C61.1455,-218.767 86.3476,-237.267 97,-243 115.067,-252.723 136.426,-261.085 153.909,-267.195"/>
<polygon fill="black" stroke="black" points="153.107,-270.619 163.701,-270.526 155.361,-263.992 153.107,-270.619"/>
<text text-anchor="middle" x="127.5" y="-231.8" font-family="Times New Roman,serif" font-size="14.00">clean/done</text>
</g>
<!-- s3&#45;&gt;s1 -->
<g id="edge16" class="edge"><title>s3&#45;&gt;s1</title>
<path fill="none" stroke="black" d="M143.327,-92.1811C167.187,-77.5909 207.938,-52.6711 235.165,-36.0211"/>
<polygon fill="black" stroke="black" points="237.131,-38.9215 243.837,-30.7185 233.48,-32.9496 237.131,-38.9215"/>
<text text-anchor="middle" x="239" y="-57.8" font-family="Times New Roman,serif" font-size="14.00">button/coffee</text>
</g>
<!-- s3&#45;&gt;s3 -->
<g id="edge14" class="edge"><title>s3&#45;&gt;s3</title>
<path fill="none" stroke="black" d="M150.795,-108.929C160.78,-109.058 169,-107.748 169,-105 169,-103.282 165.789,-102.127 160.943,-101.533"/>
<polygon fill="black" stroke="black" points="160.944,-98.0296 150.795,-101.071 160.625,-105.022 160.944,-98.0296"/>
<text text-anchor="middle" x="200" y="-101.3" font-family="Times New Roman,serif" font-size="14.00">water/done</text>
</g>
<!-- s3&#45;&gt;s3 -->
<g id="edge15" class="edge"><title>s3&#45;&gt;s3</title>
<path fill="none" stroke="black" d="M149.578,-110.906C182.625,-114.844 231,-112.875 231,-105 231,-97.894 191.612,-95.5971 159.639,-98.1092"/>
<polygon fill="black" stroke="black" points="159.19,-94.6363 149.578,-99.0938 159.872,-101.603 159.19,-94.6363"/>
<text text-anchor="middle" x="258.5" y="-101.3" font-family="Times New Roman,serif" font-size="14.00">pod/done</text>
</g>
<!-- s3&#45;&gt;s0 -->
<g id="edge17" class="edge"><title>s3&#45;&gt;s0</title>
<path fill="none" stroke="black" d="M135.555,-121.461C139.58,-127.356 143.867,-134.278 147,-141 164.017,-177.516 175.934,-222.784 182.38,-251.038"/>
<polygon fill="black" stroke="black" points="179.002,-251.972 184.581,-260.979 185.836,-250.459 179.002,-251.972"/>
<text text-anchor="middle" x="201.5" y="-188.3" font-family="Times New Roman,serif" font-size="14.00">clean/done</text>
</g>
<!-- s0&#45;&gt;s1 -->
<g id="edge4" class="edge"><title>s0&#45;&gt;s1</title>
<path fill="none" stroke="black" d="M214.339,-273.941C266.803,-265.209 380.957,-242.745 400,-210 414.176,-185.625 401.941,-108.433 387,-87 365.712,-56.4606 326.142,-38.2429 297.415,-28.4641"/>
<polygon fill="black" stroke="black" points="298.345,-25.0867 287.753,-25.3509 296.198,-31.7493 298.345,-25.0867"/>
<text text-anchor="middle" x="438.5" y="-144.8" font-family="Times New Roman,serif" font-size="14.00">button/none</text>
</g>
<!-- s0&#45;&gt;s4 -->
<g id="edge3" class="edge"><title>s0&#45;&gt;s4</title>
<path fill="none" stroke="black" d="M160.949,-276.428C117.835,-273.294 36.5928,-264.61 19,-243 13.6337,-236.408 13.4621,-227.664 15.3268,-219.332"/>
<polygon fill="black" stroke="black" points="18.7426,-220.137 18.3989,-209.548 12.064,-218.04 18.7426,-220.137"/>
<text text-anchor="middle" x="46.5" y="-231.8" font-family="Times New Roman,serif" font-size="14.00">pod/done</text>
</g>
<!-- s0&#45;&gt;s0 -->
<g id="edge5" class="edge"><title>s0&#45;&gt;s0</title>
<path fill="none" stroke="black" d="M213.443,-285.691C224.028,-286.152 233,-283.922 233,-279 233,-275.77 229.136,-273.699 223.488,-272.788"/>
<polygon fill="black" stroke="black" points="223.599,-269.289 213.443,-272.309 223.266,-276.281 223.599,-269.289"/>
<text text-anchor="middle" x="263.5" y="-275.3" font-family="Times New Roman,serif" font-size="14.00">clean/done</text>
</g>
<!-- s2 -->
<g id="node6" class="node"><title>s2</title>
<ellipse fill="none" stroke="black" cx="284" cy="-192" rx="27" ry="18"/>
<text text-anchor="middle" x="284" y="-188.3" font-family="Times New Roman,serif" font-size="14.00">s2</text>
</g>
<!-- s0&#45;&gt;s2 -->
<g id="edge2" class="edge"><title>s0&#45;&gt;s2</title>
<path fill="none" stroke="black" d="M213.232,-272.5C230.529,-267.513 252.827,-258.498 267,-243 272.894,-236.554 276.756,-227.982 279.281,-219.758"/>
<polygon fill="black" stroke="black" points="282.673,-220.62 281.746,-210.066 275.889,-218.895 282.673,-220.62"/>
<text text-anchor="middle" x="307" y="-231.8" font-family="Times New Roman,serif" font-size="14.00">water/done</text>
</g>
<!-- s2&#45;&gt;s1 -->
<g id="edge12" class="edge"><title>s2&#45;&gt;s1</title>
<path fill="none" stroke="black" d="M294.356,-175.009C306.311,-154.474 323.109,-117.812 313,-87 307.342,-69.7536 295.453,-53.2768 284.688,-40.8626"/>
<polygon fill="black" stroke="black" points="287.163,-38.3813 277.853,-33.324 281.977,-43.0832 287.163,-38.3813"/>
<text text-anchor="middle" x="349.5" y="-101.3" font-family="Times New Roman,serif" font-size="14.00">button/none</text>
</g>
<!-- s2&#45;&gt;s3 -->
<g id="edge11" class="edge"><title>s2&#45;&gt;s3</title>
<path fill="none" stroke="black" d="M263.41,-180.062C235.448,-165.207 185.303,-138.567 153.39,-121.613"/>
<polygon fill="black" stroke="black" points="154.984,-118.497 144.511,-116.896 151.7,-124.679 154.984,-118.497"/>
<text text-anchor="middle" x="240.5" y="-144.8" font-family="Times New Roman,serif" font-size="14.00">pod/done</text>
</g>
<!-- s2&#45;&gt;s0 -->
<g id="edge13" class="edge"><title>s2&#45;&gt;s0</title>
<path fill="none" stroke="black" d="M261.044,-201.624C238.266,-210.366 206.16,-223.259 202,-228 196.398,-234.384 193.024,-242.842 190.995,-250.982"/>
<polygon fill="black" stroke="black" points="187.531,-250.462 189.08,-260.943 194.406,-251.784 187.531,-250.462"/>
<text text-anchor="middle" x="232.5" y="-231.8" font-family="Times New Roman,serif" font-size="14.00">clean/done</text>
</g>
<!-- s2&#45;&gt;s2 -->
<g id="edge10" class="edge"><title>s2&#45;&gt;s2</title>
<path fill="none" stroke="black" d="M308.532,-199.752C319.508,-200.49 329,-197.906 329,-192 329,-188.032 324.715,-185.563 318.574,-184.594"/>
<polygon fill="black" stroke="black" points="318.647,-181.095 308.532,-184.248 318.406,-188.091 318.647,-181.095"/>
<text text-anchor="middle" x="360" y="-188.3" font-family="Times New Roman,serif" font-size="14.00">water/done</text>
</g>
</g>
</svg>
