<?xml version="1.0" encoding="UTF-8" standalone="no"?>
<!DOCTYPE svg PUBLIC "-//W3C//DTD SVG 1.1//EN"
 "http://www.w3.org/Graphics/SVG/1.1/DTD/svg11.dtd">
<!-- Generated by graphviz version 2.38.0 (20140413.2041)
 -->
<!-- Title: %3 Pages: 1 -->
<svg width="376pt" height="204pt"
 viewBox="0.00 0.00 376.00 204.00" xmlns="http://www.w3.org/2000/svg" xmlns:xlink="http://www.w3.org/1999/xlink">
<g id="graph0" class="graph" transform="scale(1 1) rotate(0) translate(4 200)">
<title>%3</title>
<polygon fill="white" stroke="none" points="-4,4 -4,-200 372,-200 372,4 -4,4"/>
<!-- fake -->
<g id="node1" class="node"><title>fake</title>
</g>
<!-- s0 -->
<g id="node2" class="node"><title>s0</title>
<ellipse fill="none" stroke="black" cx="27" cy="-105" rx="27" ry="18"/>
<text text-anchor="middle" x="27" y="-101.3" font-family="Times New Roman,serif" font-size="14.00">s0</text>
</g>
<!-- fake&#45;&gt;s0 -->
<g id="edge1" class="edge"><title>fake&#45;&gt;s0</title>
<path fill="none" stroke="black" stroke-width="2" d="M27,-159.813C27,-151.789 27,-142.047 27,-133.069"/>
<polygon fill="black" stroke="black" stroke-width="2" points="30.5001,-133.029 27,-123.029 23.5001,-133.029 30.5001,-133.029"/>
</g>
<!-- s0&#45;&gt;s0 -->
<g id="edge2" class="edge"><title>s0&#45;&gt;s0</title>
<path fill="none" stroke="black" d="M53.7949,-107.245C63.7804,-107.319 72,-106.57 72,-105 72,-104.019 68.7892,-103.358 63.9433,-103.019"/>
<polygon fill="black" stroke="black" points="63.8825,-99.5162 53.7949,-102.755 63.7004,-106.514 63.8825,-99.5162"/>
<text text-anchor="middle" x="103" y="-101.3" font-family="Times New Roman,serif" font-size="14.00">water/done</text>
</g>
<!-- s0&#45;&gt;s0 -->
<g id="edge3" class="edge"><title>s0&#45;&gt;s0</title>
<path fill="none" stroke="black" d="M53.6158,-108.444C86.6276,-110.601 134,-109.453 134,-105 134,-100.982 95.4282,-99.6546 63.6406,-101.018"/>
<polygon fill="black" stroke="black" points="63.414,-97.5254 53.6158,-101.556 63.7888,-104.515 63.414,-97.5254"/>
<text text-anchor="middle" x="161.5" y="-101.3" font-family="Times New Roman,serif" font-size="14.00">pod/done</text>
</g>
<!-- s0&#45;&gt;s0 -->
<g id="edge5" class="edge"><title>s0&#45;&gt;s0</title>
<path fill="none" stroke="black" d="M53.3694,-109.243C101.585,-113.657 189,-112.242 189,-105 189,-98.2387 112.809,-96.5569 63.4563,-99.9544"/>
<polygon fill="black" stroke="black" points="63.0605,-96.4748 53.3694,-100.757 63.6154,-103.453 63.0605,-96.4748"/>
<text text-anchor="middle" x="219.5" y="-101.3" font-family="Times New Roman,serif" font-size="14.00">clean/done</text>
</g>
<!-- s1 -->
<g id="node3" class="node"><title>s1</title>
<ellipse fill="none" stroke="black" cx="27" cy="-18" rx="27" ry="18"/>
<text text-anchor="middle" x="27" y="-14.3" font-family="Times New Roman,serif" font-size="14.00">s1</text>
</g>
<!-- s0&#45;&gt;s1 -->
<g id="edge4" class="edge"><title>s0&#45;&gt;s1</title>
<path fill="none" stroke="black" d="M27,-86.799C27,-75.1626 27,-59.5479 27,-46.2368"/>
<polygon fill="black" stroke="black" points="30.5001,-46.1754 27,-36.1754 23.5001,-46.1755 30.5001,-46.1754"/>
<text text-anchor="middle" x="60.5" y="-57.8" font-family="Times New Roman,serif" font-size="14.00">button/none</text>
</g>
<!-- s1&#45;&gt;s1 -->
<g id="edge6" class="edge"><title>s1&#45;&gt;s1</title>
<path fill="none" stroke="black" d="M54.2408,-19.9668C64.0239,-20.0091 72,-19.3535 72,-18 72,-17.1752 69.0382,-16.6096 64.5105,-16.3031"/>
<polygon fill="black" stroke="black" points="64.3293,-12.7972 54.2408,-16.0332 64.1453,-19.7948 64.3293,-12.7972"/>
<text text-anchor="middle" x="102.5" y="-14.3" font-family="Times New Roman,serif" font-size="14.00">water/none</text>
</g>
<!-- s1&#45;&gt;s1 -->
<g id="edge7" class="edge"><title>s1&#45;&gt;s1</title>
<path fill="none" stroke="black" d="M53.7093,-21.0285C86.4245,-22.8957 133,-21.8862 133,-18 133,-14.5085 95.4047,-13.339 64.0428,-14.4916"/>
<polygon fill="black" stroke="black" points="63.5361,-11.0112 53.7093,-14.9715 63.8609,-18.0037 63.5361,-11.0112"/>
<text text-anchor="middle" x="160" y="-14.3" font-family="Times New Roman,serif" font-size="14.00">pod/none</text>
</g>
<!-- s1&#45;&gt;s1 -->
<g id="edge8" class="edge"><title>s1&#45;&gt;s1</title>
<path fill="none" stroke="black" d="M53.5184,-21.7411C101.297,-25.5686 187,-24.3215 187,-18 187,-12.0983 112.302,-10.6194 63.5024,-13.5636"/>
<polygon fill="black" stroke="black" points="63.2511,-10.0725 53.5184,-14.2589 63.7375,-17.0556 63.2511,-10.0725"/>
<text text-anchor="middle" x="220.5" y="-14.3" font-family="Times New Roman,serif" font-size="14.00">button/none</text>
</g>
<!-- s1&#45;&gt;s1 -->
<g id="edge9" class="edge"><title>s1&#45;&gt;s1</title>
<path fill="none" stroke="black" d="M53.3451,-22.195C116.527,-28.2372 254,-26.8389 254,-18 254,-9.60998 130.135,-7.924 63.5175,-12.9421"/>
<polygon fill="black" stroke="black" points="63.0134,-9.47216 53.3451,-13.805 63.6052,-16.4471 63.0134,-9.47216"/>
<text text-anchor="middle" x="284" y="-14.3" font-family="Times New Roman,serif" font-size="14.00">clean/none</text>
</g>
</g>
</svg>
