<?xml version="1.0" encoding="UTF-8" standalone="no"?>
<!DOCTYPE svg PUBLIC "-//W3C//DTD SVG 1.1//EN"
 "http://www.w3.org/Graphics/SVG/1.1/DTD/svg11.dtd">
<!-- Generated by graphviz version 2.38.0 (20140413.2041)
 -->
<!-- Title: %3 Pages: 1 -->
<svg width="436pt" height="378pt"
 viewBox="0.00 0.00 435.85 378.00" xmlns="http://www.w3.org/2000/svg" xmlns:xlink="http://www.w3.org/1999/xlink">
<g id="graph0" class="graph" transform="scale(1 1) rotate(0) translate(4 374)">
<title>%3</title>
<polygon fill="white" stroke="none" points="-4,4 -4,-374 431.853,-374 431.853,4 -4,4"/>
<!-- fake -->
<g id="node1" class="node"><title>fake</title>
</g>
<!-- s0 -->
<g id="node3" class="node"><title>s0</title>
<ellipse fill="none" stroke="black" cx="87.8525" cy="-279" rx="27" ry="18"/>
<text text-anchor="middle" x="87.8525" y="-275.3" font-family="Times New Roman,serif" font-size="14.00">s0</text>
</g>
<!-- fake&#45;&gt;s0 -->
<g id="edge1" class="edge"><title>fake&#45;&gt;s0</title>
<path fill="none" stroke="black" stroke-width="2" d="M87.8525,-333.813C87.8525,-325.789 87.8525,-316.047 87.8525,-307.069"/>
<polygon fill="black" stroke="black" stroke-width="2" points="91.3526,-307.029 87.8525,-297.029 84.3526,-307.029 91.3526,-307.029"/>
</g>
<!-- s2 -->
<g id="node2" class="node"><title>s2</title>
<ellipse fill="none" stroke="black" cx="72.8525" cy="-192" rx="27" ry="18"/>
<text text-anchor="middle" x="72.8525" y="-188.3" font-family="Times New Roman,serif" font-size="14.00">s2</text>
</g>
<!-- s2&#45;&gt;s2 -->
<g id="edge10" class="edge"><title>s2&#45;&gt;s2</title>
<path fill="none" stroke="black" d="M97.385,-199.752C108.36,-200.49 117.853,-197.906 117.853,-192 117.853,-188.032 113.568,-185.563 107.427,-184.594"/>
<polygon fill="black" stroke="black" points="107.5,-181.095 97.385,-184.248 107.258,-188.091 107.5,-181.095"/>
<text text-anchor="middle" x="148.853" y="-188.3" font-family="Times New Roman,serif" font-size="14.00">water/done</text>
</g>
<!-- s2&#45;&gt;s0 -->
<g id="edge13" class="edge"><title>s2&#45;&gt;s0</title>
<path fill="none" stroke="black" d="M90.9831,-205.548C97.9493,-211.463 105.121,-219.167 108.853,-228 112.512,-236.662 110.12,-246.176 105.841,-254.558"/>
<polygon fill="black" stroke="black" points="102.844,-252.75 100.654,-263.116 108.831,-256.378 102.844,-252.75"/>
<text text-anchor="middle" x="140.353" y="-231.8" font-family="Times New Roman,serif" font-size="14.00">clean/done</text>
</g>
<!-- s1 -->
<g id="node4" class="node"><title>s1</title>
<ellipse fill="none" stroke="black" cx="86.8525" cy="-18" rx="27" ry="18"/>
<text text-anchor="middle" x="86.8525" y="-14.3" font-family="Times New Roman,serif" font-size="14.00">s1</text>
</g>
<!-- s2&#45;&gt;s1 -->
<g id="edge12" class="edge"><title>s2&#45;&gt;s1</title>
<path fill="none" stroke="black" d="M74.2461,-173.879C76.678,-144.001 81.7154,-82.1129 84.6326,-46.2736"/>
<polygon fill="black" stroke="black" points="88.1417,-46.3026 85.4646,-36.0516 81.1648,-45.7347 88.1417,-46.3026"/>
<text text-anchor="middle" x="114.353" y="-101.3" font-family="Times New Roman,serif" font-size="14.00">button/none</text>
</g>
<!-- s3 -->
<g id="node5" class="node"><title>s3</title>
<ellipse fill="none" stroke="black" cx="198.853" cy="-105" rx="27" ry="18"/>
<text text-anchor="middle" x="198.853" y="-101.3" font-family="Times New Roman,serif" font-size="14.00">s3</text>
</g>
<!-- s2&#45;&gt;s3 -->
<g id="edge11" class="edge"><title>s2&#45;&gt;s3</title>
<path fill="none" stroke="black" d="M91.0929,-178.662C106.067,-168.537 127.827,-153.83 146.853,-141 155.068,-135.459 164.019,-129.432 172.142,-123.965"/>
<polygon fill="black" stroke="black" points="174.215,-126.789 180.558,-118.302 170.307,-120.981 174.215,-126.789"/>
<text text-anchor="middle" x="174.353" y="-144.8" font-family="Times New Roman,serif" font-size="14.00">pod/done</text>
</g>
<!-- s0&#45;&gt;s2 -->
<g id="edge2" class="edge"><title>s0&#45;&gt;s2</title>
<path fill="none" stroke="black" d="M68.1267,-266.583C59.9395,-260.689 51.3204,-252.689 46.8525,-243 42.6118,-233.804 46.05,-223.871 51.6511,-215.3"/>
<polygon fill="black" stroke="black" points="54.4982,-217.339 57.7689,-207.261 48.9278,-213.099 54.4982,-217.339"/>
<text text-anchor="middle" x="77.8525" y="-231.8" font-family="Times New Roman,serif" font-size="14.00">water/done</text>
</g>
<!-- s0&#45;&gt;s0 -->
<g id="edge3" class="edge"><title>s0&#45;&gt;s0</title>
<path fill="none" stroke="black" d="M114.647,-282.368C124.633,-282.478 132.853,-281.355 132.853,-279 132.853,-277.528 129.642,-276.537 124.796,-276.028"/>
<polygon fill="black" stroke="black" points="124.776,-272.525 114.647,-275.632 124.503,-279.52 124.776,-272.525"/>
<text text-anchor="middle" x="160.353" y="-275.3" font-family="Times New Roman,serif" font-size="14.00">pod/done</text>
</g>
<!-- s0&#45;&gt;s0 -->
<g id="edge5" class="edge"><title>s0&#45;&gt;s0</title>
<path fill="none" stroke="black" d="M113.803,-284.217C144.793,-287.384 187.853,-285.645 187.853,-279 187.853,-273.056 153.397,-271.038 123.947,-272.945"/>
<polygon fill="black" stroke="black" points="123.481,-269.471 113.803,-273.783 124.058,-276.447 123.481,-269.471"/>
<text text-anchor="middle" x="218.353" y="-275.3" font-family="Times New Roman,serif" font-size="14.00">clean/done</text>
</g>
<!-- s0&#45;&gt;s1 -->
<g id="edge4" class="edge"><title>s0&#45;&gt;s1</title>
<path fill="none" stroke="black" d="M68.0334,-266.711C58.7893,-260.649 48.2274,-252.473 40.8525,-243 11.3197,-205.067 -9.16537,-186.985 4.85251,-141 16.7678,-101.912 45.8575,-63.9929 65.9758,-41.072"/>
<polygon fill="black" stroke="black" points="68.5971,-43.3914 72.6749,-33.6127 63.3891,-38.7141 68.5971,-43.3914"/>
<text text-anchor="middle" x="38.3525" y="-144.8" font-family="Times New Roman,serif" font-size="14.00">button/none</text>
</g>
<!-- s1&#45;&gt;s1 -->
<g id="edge6" class="edge"><title>s1&#45;&gt;s1</title>
<path fill="none" stroke="black" d="M114.093,-19.9668C123.876,-20.0091 131.853,-19.3535 131.853,-18 131.853,-17.1752 128.891,-16.6096 124.363,-16.3031"/>
<polygon fill="black" stroke="black" points="124.182,-12.7972 114.093,-16.0332 123.998,-19.7948 124.182,-12.7972"/>
<text text-anchor="middle" x="162.353" y="-14.3" font-family="Times New Roman,serif" font-size="14.00">water/none</text>
</g>
<!-- s1&#45;&gt;s1 -->
<g id="edge7" class="edge"><title>s1&#45;&gt;s1</title>
<path fill="none" stroke="black" d="M113.562,-21.0285C146.277,-22.8957 192.853,-21.8862 192.853,-18 192.853,-14.5085 155.257,-13.339 123.895,-14.4916"/>
<polygon fill="black" stroke="black" points="123.389,-11.0112 113.562,-14.9715 123.713,-18.0037 123.389,-11.0112"/>
<text text-anchor="middle" x="219.853" y="-14.3" font-family="Times New Roman,serif" font-size="14.00">pod/none</text>
</g>
<!-- s1&#45;&gt;s1 -->
<g id="edge8" class="edge"><title>s1&#45;&gt;s1</title>
<path fill="none" stroke="black" d="M113.371,-21.7411C161.15,-25.5686 246.853,-24.3215 246.853,-18 246.853,-12.0983 172.154,-10.6194 123.355,-13.5636"/>
<polygon fill="black" stroke="black" points="123.104,-10.0725 113.371,-14.2589 123.59,-17.0556 123.104,-10.0725"/>
<text text-anchor="middle" x="280.353" y="-14.3" font-family="Times New Roman,serif" font-size="14.00">button/none</text>
</g>
<!-- s1&#45;&gt;s1 -->
<g id="edge9" class="edge"><title>s1&#45;&gt;s1</title>
<path fill="none" stroke="black" d="M113.198,-22.195C176.38,-28.2372 313.853,-26.8389 313.853,-18 313.853,-9.60998 189.987,-7.924 123.37,-12.9421"/>
<polygon fill="black" stroke="black" points="122.866,-9.47216 113.198,-13.805 123.458,-16.4471 122.866,-9.47216"/>
<text text-anchor="middle" x="343.853" y="-14.3" font-family="Times New Roman,serif" font-size="14.00">clean/none</text>
</g>
<!-- s3&#45;&gt;s0 -->
<g id="edge17" class="edge"><title>s3&#45;&gt;s0</title>
<path fill="none" stroke="black" d="M201.53,-123.133C205.008,-152.222 207.252,-211.202 174.853,-243 160.866,-256.727 140.796,-265.284 123.458,-270.497"/>
<polygon fill="black" stroke="black" points="122.348,-267.172 113.631,-273.194 124.201,-273.922 122.348,-267.172"/>
<text text-anchor="middle" x="232.353" y="-188.3" font-family="Times New Roman,serif" font-size="14.00">clean/done</text>
</g>
<!-- s3&#45;&gt;s1 -->
<g id="edge16" class="edge"><title>s3&#45;&gt;s1</title>
<path fill="none" stroke="black" d="M181.353,-90.7188C162.859,-76.6838 133.509,-54.4092 112.424,-38.4071"/>
<polygon fill="black" stroke="black" points="114.311,-35.4454 104.23,-32.188 110.079,-41.0215 114.311,-35.4454"/>
<text text-anchor="middle" x="186.853" y="-57.8" font-family="Times New Roman,serif" font-size="14.00">button/coffee</text>
</g>
<!-- s3&#45;&gt;s3 -->
<g id="edge14" class="edge"><title>s3&#45;&gt;s3</title>
<path fill="none" stroke="black" d="M225.647,-108.929C235.633,-109.058 243.853,-107.748 243.853,-105 243.853,-103.282 240.642,-102.127 235.796,-101.533"/>
<polygon fill="black" stroke="black" points="235.796,-98.0296 225.647,-101.071 235.478,-105.022 235.796,-98.0296"/>
<text text-anchor="middle" x="274.853" y="-101.3" font-family="Times New Roman,serif" font-size="14.00">water/done</text>
</g>
<!-- s3&#45;&gt;s3 -->
<g id="edge15" class="edge"><title>s3&#45;&gt;s3</title>
<path fill="none" stroke="black" d="M224.431,-110.906C257.478,-114.844 305.853,-112.875 305.853,-105 305.853,-97.894 266.464,-95.5971 234.492,-98.1092"/>
<polygon fill="black" stroke="black" points="234.042,-94.6363 224.431,-99.0938 234.724,-101.603 234.042,-94.6363"/>
<text text-anchor="middle" x="333.353" y="-101.3" font-family="Times New Roman,serif" font-size="14.00">pod/done</text>
</g>
</g>
</svg>
